<?xml version="1.0" encoding="UTF-8"?>
<svg id="Lag_2" data-name="Lag 2" xmlns="http://www.w3.org/2000/svg" viewBox="0 0 1175.44 257.08" width="1175.44" height="257.08">
  <defs>
    <style>
      .cls-1 {
        fill: #8da834;
      }

      .cls-1, .cls-2, .cls-3, .cls-4, .cls-5, .cls-6, .cls-7, .cls-8, .cls-9, .cls-10 {
        stroke-width: 0px;
      }

      .cls-2 {
        fill: #ec7ba9;
      }

      .cls-3 {
        fill: #f59a4d;
      }

      .cls-4 {
        fill: #fff;
      }

      .cls-5 {
        fill: #276019;
      }

      .cls-6 {
        fill: #ff665a;
      }

      .cls-7 {
        fill: #478638;
      }

      .cls-8 {
        fill: #75840f;
      }

      .cls-9 {
        fill: #ffc977;
      }

      .cls-10 {
        fill: #ffb0d0;
      }
    </style>
  </defs>
  <g id="Layer_1" data-name="Layer 1">
    <g>
      <g>
        <path class="cls-1" d="m0,157.22c.24.24.5.48.74.7,1.11,1.07,2.24,2.13,3.39,3.15,28.87,25.82,68.01,37.47,105.59,28.09.83-.2,1.67-.43,2.5-.65-.02-.06-.04-.11-.06-.17-3.79-11.79-13.47-21.02-24.52-26.63-11.1-5.61-23.56-7.94-35.9-9.49-17.45-2.18-35.96-2.74-51.74,5Z"/>
        <path class="cls-8" d="m.74,157.92c1.11,1.07,2.24,2.13,3.39,3.15,3.92.3,7.85.67,11.75,1.09,17.77,2.04,35.35,5.72,52.45,10.96,8.55,2.61,16.95,5.64,25.22,9.01,5.42,2.22,10.84,4.53,16.17,7.03.83-.2,1.67-.43,2.5-.65-.02-.06-.04-.11-.06-.17-6.81-3.55-13.71-6.83-20.86-9.75-16.71-6.81-34.09-12.05-51.78-15.6-8.83-1.78-17.75-3.13-26.7-4.07-4.02-.41-8.05-.76-12.08-1Z"/>
      </g>
      <g>
        <path class="cls-1" d="m210.05,257.08c10.68-22.26,14.38-47.4,9.06-72.16-.18-.84-.37-1.68-.56-2.52-.06.02-.11.03-.17.05-11.91,3.4-21.46,12.77-27.43,23.63-5.97,10.91-8.71,23.28-10.68,35.57-.81,5.08-1.47,10.26-1.83,15.44h31.61Z"/>
        <path class="cls-8" d="m192.88,257.08c2.36-10.59,5.31-21.06,8.83-31.32,2.89-8.46,6.2-16.76,9.84-24.91,2.4-5.35,4.89-10.69,7.56-15.93-.18-.84-.37-1.68-.56-2.52-.06.02-.11.03-.17.05-3.78,6.69-7.28,13.48-10.44,20.52-7.36,16.48-13.17,33.67-17.31,51.23-.23.96-.43,1.92-.64,2.88h2.88Z"/>
      </g>
      <g>
        <path class="cls-1" d="m77.97,76.85c.04.34.1.69.16,1.01.22,1.53.47,3.05.76,4.56,7.09,38.07,30.96,71.21,66.45,86.74.78.35,1.58.68,2.37,1.01.02-.06.04-.11.06-.17,4.2-11.65,2.17-24.87-3.15-36.06-5.37-11.22-13.8-20.68-22.63-29.45-12.48-12.39-26.8-24.13-44.02-27.65Z"/>
        <path class="cls-8" d="m78.12,77.86c.22,1.53.47,3.05.76,4.56,2.93,2.63,5.81,5.32,8.64,8.04,12.82,12.46,24.49,26.12,34.83,40.71,5.18,7.29,9.97,14.82,14.47,22.54,2.94,5.07,5.82,10.21,8.51,15.45.78.35,1.58.68,2.37,1.01.02-.06.04-.11.06-.17-3.22-6.97-6.69-13.78-10.56-20.46-9.07-15.6-19.63-30.36-31.47-43.98-5.9-6.8-12.14-13.32-18.66-19.53-2.93-2.78-5.91-5.52-8.96-8.17Z"/>
      </g>
      <g>
        <path class="cls-1" d="m401.21,201.38c-29.45,2.42-59.75-9.03-80.24-30.33,14.02-6.42,29.63-7.41,44.09-2.04,14.46,5.37,29.72,18.35,36.15,32.37Z"/>
        <path class="cls-1" d="m415.17,257.08c-9.65-16.4-26.2-28.6-44.75-32.87-18.87-4.35-39.49-.44-55.46,10.51,14.36,11.55,33.12,18.88,52.64,22.35h47.57Z"/>
        <path class="cls-1" d="m408.93,198.29c-9.7-33.06,1.33-71.28,27.15-94.09,6.8,32.65-2.88,71.22-27.15,94.09Z"/>
        <path class="cls-1" d="m430.12,257.08c29.59-20.89,53.35-51.83,62.23-86.83-19.8,4.47-37.86,16.25-49.94,32.55-11.49,15.51-17.48,35-16.76,54.28h4.48Z"/>
        <path class="cls-1" d="m395.8,180.66c-22.51-10.85-41.53-28.8-53.68-50.64-12.14-21.84-17.35-47.47-14.69-72.32,39.69,26.22,68.28,75.39,68.37,122.96Z"/>
        <path class="cls-8" d="m401.18,248.41c-8.54-3.82-17.73-6.18-26.89-7.94-3.06-.59-6.14-1.17-9.24-1.51-3.27-.36-6.65-.93-9.94-.82-.66.02-.85,1.08-.21,1.3,2.62.88,5.44,1.35,8.14,1.92,2.82.6,5.63,1.2,8.45,1.76,4.5.88,9,1.84,13.43,3.02,8.58,2.28,17.17,5.43,24.59,10.38.27.18.52.38.79.57h5.05c-4.22-3.67-9.32-6.51-14.18-8.68Z"/>
        <path class="cls-8" d="m427.96,257.08c1.47-4.32,3.07-8.59,4.98-12.77,3.95-8.68,8.9-16.85,14.66-24.44,1.61-2.13,3.29-4.2,5-6.25,1.72-2.07,3.82-4.07,5.18-6.39.54-.93-.73-1.6-1.46-1.17-2.06,1.21-3.77,3.27-5.43,4.97-1.69,1.73-3.24,3.59-4.76,5.46-3.07,3.8-5.9,7.82-8.46,11.98-5.1,8.28-9.37,17.14-12.37,26.4-.24.73-.44,1.47-.66,2.21h3.34Z"/>
        <path class="cls-8" d="m347.27,184.25c7.82,1.48,15.66,2.77,23.32,4.99,7.63,2.22,15.05,5.28,22.08,9,2,1.06,3.99,2.17,5.95,3.31,1.34.79,2.68,1.62,4.05,2.37,2.31,6.67,4.47,13.4,6.5,20.16,3.27,10.9,6.17,21.92,8.82,32.99h3.52c-2.33-9.8-4.85-19.55-7.65-29.22-1.02-3.54-2.09-7.06-3.18-10.58-1.98-17.86.36-36.43,6.55-53.26,1.8-4.9,4.17-9.57,5.95-14.47.4-1.09-1.05-2.13-1.81-1.1-2.8,3.75-4.75,8.2-6.47,12.53-1.75,4.41-3.21,8.94-4.4,13.54-2.37,9.2-3.57,18.66-3.57,28.16,0,1.11.04,2.21.08,3.31-2.12-6.28-4.35-12.53-6.74-18.71-5.11-13.24-10.89-26.23-17.43-38.82-3.24-6.25-6.67-12.4-10.31-18.42-3.66-6.05-7.45-12.13-11.85-17.68-1.12-1.41-2.17-2.86-3.26-4.29-.86-1.13-2.57.14-1.77,1.3,3.97,5.82,7.63,11.87,11.33,17.87,3.71,6.02,7.22,12.16,10.55,18.4,6.61,12.4,12.47,25.2,17.68,38.25,2.15,5.39,4.17,10.82,6.11,16.29-1.91-1.34-3.94-2.54-5.91-3.66-3.55-2.02-7.2-3.85-10.95-5.46-7.49-3.21-15.32-5.65-23.33-7.16-4.55-.85-9.2-1.3-13.82-1.14-.87.03-.86,1.34-.05,1.49Z"/>
      </g>
      <g>
        <path class="cls-7" d="m468.4,243.56c1.45,4.59,3.17,9.11,5.13,13.53h28.51c-.16-28.09-1.13-56.95-2.72-83.7-1.62-27.26-5.55-56.23-22.78-77.42-15.92,25.25-17.82,56.72-16.86,86.55.66,20.61,2.5,41.37,8.72,61.03Z"/>
        <path class="cls-7" d="m570.6,257.08c30.39-26.37,53.1-61.01,64.85-99.53-29.79,8.46-56.89,26.12-76.66,49.95-12.77,15.39-22.59,31.68-28.71,49.58h40.53Z"/>
        <path class="cls-5" d="m561.66,238.94c-4.81,6.08-9.66,12.13-14.54,18.15h4.17c9.44-11.61,18.73-23.34,27.85-35.2,3.07-3.99,6.13-8,9.17-12.02,3.1-4.1,6.19-8.22,8.68-12.73.57-1.03-.93-1.73-1.64-1-3.21,3.29-6,6.96-8.78,10.62-2.74,3.6-5.47,7.2-8.22,10.79-5.51,7.17-11.07,14.3-16.68,21.39Z"/>
        <path class="cls-5" d="m515.64,257.08c1.73-12.06,3.94-24.05,6.62-35.93,3.54-15.69,7.9-31.19,13.09-46.42,4.03-11.84,8.57-23.51,13.56-34.98,1.24.27,2.49.47,3.77.55,1.02.06,2.06.12,3.08.03.47-.04.91-.19,1.37-.29.62-.13,1.16-.41,1.48-.97.15-.25.09-.67-.1-.89-.33-.39-.8-.58-1.31-.66-.2-.03-.41,0-.6-.04-.29-.05-.44-.11-.76-.12-.93-.03-1.86-.02-2.79-.08-.98-.06-1.96-.16-2.93-.29,1.02-2.29,2.02-4.59,3.07-6.87,6.74-14.54,14.38-28.6,22.2-42.58.97-1.74,1.96-3.48,2.93-5.22.61-1.08-1.16-2.16-1.86-1.13-9.1,13.33-16.78,27.61-23.77,42.13-2.11,4.38-4.12,8.81-6.09,13.25-.28-.5-.56-1.01-.87-1.49-.66-1.03-1.31-2.07-1.93-3.11-.63-1.05-1.24-2.1-1.86-3.15-.63-1.05-1.29-2.12-2.27-2.87-.69-.53-1.63.02-1.59.86.06,1.24.59,2.4,1.17,3.48.57,1.07,1.16,2.12,1.79,3.15.59.98,1.2,1.95,1.83,2.91.33.51.67,1.02,1.05,1.5.36.46.7.95,1.19,1.26.09.09.19.19.28.28-4.09,9.42-7.9,18.97-11.34,28.65-5.42,15.23-10.04,30.76-13.84,46.48-3.39,14.04-6.1,28.25-8.13,42.55h3.55Z"/>
        <path class="cls-5" d="m489.03,257.08h3.49c-1.07-3.73-2.1-7.47-3.04-11.23-5.13-20.47-8.3-41.46-9.6-62.51-.74-11.98-.99-23.95-.41-35.95.08-1.63-2.44-2.06-2.53-.41-1.14,21.37-.54,42.78,2.41,63.99,2.16,15.57,5.41,30.99,9.69,46.12Z"/>
        <path class="cls-6" d="m589.44,70.03c3.26-4.46,1.52-11.68-3.41-14.16-4.93-2.48-12.09.92-13.73,6.2-1.65-3.7-3.99-7.94-8.03-8.34-2.21-.22-4.41.87-5.94,2.48-1.53,1.61-2.49,3.68-3.23,5.77-4.72,13.4-.87,29.41,9.44,39.2,2.27,2.15,3.3,2.85,6.41,3.13,3.11.28,6.23-.5,9.17-1.57,8.46-3.08,15.98-8.67,21.37-15.88,2.25-3,4.19-6.52,4.02-10.26-.18-3.91-2.9-7.58-6.59-8.89-3.69-1.31-6.88-.59-9.49,2.33Z"/>
        <path class="cls-4" d="m582.94,77.74c0,2.71-2.01,4.91-4.5,4.91s-4.5-2.2-4.5-4.91,2.01-4.91,4.5-4.91,4.5,2.2,4.5,4.91Z"/>
        <g>
          <path class="cls-6" d="m513.79,111.59c-.22-1.26-.34-2.61.18-3.77,1.24-2.77,5.26-2.89,8-1.57,2.73,1.32,5.01,3.61,7.95,4.38-.84-2.78-1.69-5.68-1.21-8.55.48-2.86,2.72-5.66,5.63-5.73,3.01-.08,5.32,2.6,6.87,5.18,5.13,8.55,11.83,28.2-2.03,32.37-12.72,3.83-23.55-11.56-25.39-22.31Z"/>
          <path class="cls-4" d="m537.01,111.57c-.01-.29-.1-.56-.12-.85-.04-.51-.1-.99-.47-1.46-.51-.64-1.47-.68-1.99-.04-.72.88-.67,2.23-.68,3.32-.01.93-.01,1.87-.02,2.8,0,.93,0,1.85,0,2.78-.36-.21-.71-.43-1.07-.63-1.21-.65-2.44-1.19-3.7-1.73-1.11-.48-2.21,1.15-1.14,1.87,1.09.74,2.16,1.54,3.23,2.31,1.08.78,2.19,1.52,3.27,2.3.52.37,1.18.46,1.75.14.59-.34.81-.87.82-1.53.04-1.9.09-3.81.11-5.72l.03-2.8c0-.25,0-.5,0-.75Z"/>
        </g>
        <g>
          <path class="cls-6" d="m592.05,141.81c.98-.82,1.95-1.77,2.31-2.99.85-2.91-2.14-5.61-5.09-6.37-2.94-.76-6.16-.49-8.89-1.8,2.44-1.58,4.96-3.24,6.45-5.74,1.49-2.49,1.58-6.08-.58-8.01-2.25-2.01-5.74-1.46-8.6-.49-9.45,3.2-27.26,13.85-19.39,26,7.22,11.14,25.43,6.42,33.79-.59Z"/>
          <path class="cls-4" d="m574.36,126.76c.2-.21.44-.36.64-.57.36-.36.72-.69,1.31-.81.8-.16,1.56.43,1.55,1.26-.02,1.14-.94,2.13-1.63,2.97-.59.72-1.2,1.43-1.79,2.15-.59.71-1.2,1.41-1.8,2.12.41.07.82.13,1.22.21,1.34.29,2.63.67,3.94,1.07,1.16.36.95,2.31-.34,2.17-1.31-.14-2.64-.22-3.95-.33-1.33-.11-2.65-.26-3.98-.36-.64-.05-1.2-.41-1.42-1.02-.23-.64-.05-1.19.36-1.7,1.2-1.48,2.4-2.96,3.61-4.43l1.79-2.16c.16-.19.32-.39.49-.57Z"/>
        </g>
      </g>
      <g>
        <path class="cls-1" d="m659.25,247.89c3.65,3.42,7.62,6.49,11.83,9.19h34.46c-6.5-11.79-14.17-22.51-23.17-33.1-12.26-14.42-29.99-26.78-48.91-27.43,2.21,19.43,11.53,37.96,25.79,51.34Z"/>
        <path class="cls-1" d="m738.43,257.08c9.21-7.35,17.21-16.28,22.35-26.04,9.08-17.24,10.75-38.81,7.12-57.96-29.17,17.74-48.72,50.08-51.74,84h22.27Z"/>
        <path class="cls-8" d="m724.04,257.08c1.87-3.98,3.76-7.96,5.73-11.9,4.78-9.54,9.96-18.88,15.97-27.71,1.64-2.41,3.33-4.79,5.09-7.11,1.79-2.37,3.99-4.7,5.23-7.42.5-1.1-.81-2.03-1.75-1.41-2.21,1.47-3.91,3.81-5.52,5.89-1.66,2.15-3.26,4.34-4.81,6.56-3.03,4.35-5.84,8.86-8.51,13.44-5.43,9.3-10.26,18.97-14.73,28.76-.14.3-.27.6-.4.9h3.71Z"/>
        <path class="cls-8" d="m693.82,257.08h5.13c-2.74-2.5-5.48-5.01-8.22-7.51-8.04-7.34-16.07-14.72-24.31-21.84-4.64-4.01-9.34-7.93-14.14-11.74-.49-.39-1.28.3-.82.78,13.44,14.11,27.94,27.19,42.36,40.31Z"/>
        <path class="cls-8" d="m702.11,175.87c1.44,9.59,2.83,19.19,4.04,28.82,2.19,17.42,3.91,34.89,5.19,52.4h3.43c-.49-6.66-1.02-13.32-1.64-19.97-1.81-19.32-4.17-38.58-7.09-57.76-.82-5.4-1.73-10.78-2.66-16.16-.95-5.48-2.19-10.87-3.46-16.29-.29-1.25-2.24-1.16-2.06.2.65,4.8,1.26,9.59,1.99,14.38.74,4.79,1.54,9.57,2.26,14.37Z"/>
        <path class="cls-9" d="m702.74,158.16s-13.09,3.27-37.4-11.69c-24.31-14.96-4.68-21.51,5.14-16.36,0,0-9.82-11.22-3.27-15.9,6.55-4.68,18.23,6.55,18.23,6.55,0,0-1.87-14.96,6.55-17.3,8.42-2.34,11.69,15.9,11.69,15.9,0,0,7.48-17.77,15.43-13.56,7.95,4.21,3.74,17.77,3.74,17.77,0,0,9.82-10.29,15.9,0,6.08,10.29-16.36,29.92-36,34.6Z"/>
        <path class="cls-4" d="m711.06,132.66c-1.58,3.21-4.21,5.95-7.48,7.3.07-.26.15-.52.22-.78.29-1.06.59-2.12.88-3.18.34-1.22.65-2.45.93-3.68.13-.57.24-1.15.29-1.74.03-.34.04-.68.05-1.01.02-.41-.11-.63-.26-1-.21-.52-.87-.74-1.34-.39-.31.24-.53.34-.73.69-.12.22-.24.44-.35.67-.26.53-.49,1.06-.67,1.62-.38,1.18-.73,2.37-1.07,3.56-.32,1.14-.61,2.28-.92,3.42-.09.33-.18.65-.26.98-.04.17-.05.21-.05.22,0,.01-.02.03-.04.11-.04.11-.1.21-.14.32-.09-.08-.19-.15-.28-.23-.29-.24-.66-.58-.85-.78-.64-.67-1.21-1.4-1.69-2.19-.89-1.45-1.56-3.21-1.85-4.92-.19-1.12-2-1.34-2.11-.07-.16,1.88.07,3.64.75,5.4.49,1.27,1.2,2.43,2.06,3.48-3.54-.94-6.68-3.43-8.73-6.4-.69-1-2.19-.1-1.82,1,2.03,6.05,8.45,9.58,14.68,9.18,3.01-.2,6.01-1.38,8.4-3.22,2.55-1.96,4.28-4.43,5.07-7.54.41-1.62-2.01-2.19-2.69-.81Z"/>
      </g>
      <g>
        <path class="cls-8" d="m972.61,131c1.65,5.46,3.81,10.95,6.82,15.82,1.51,2.43,3.34,4.71,5.59,6.49,2.07,1.64,4.86,2.95,7.56,2.69-.14.34-.08.74.25,1.03-4.71,7.84-8.37,16.4-11.94,24.78-3.95,9.3-7.5,18.77-10.69,28.36-5.11,15.37-9.27,31.05-12.46,46.92h3.49c.89-4.4,1.84-8.79,2.88-13.16,4.65-19.53,10.85-38.65,18.43-57.24,2.12-5.2,4.34-10.36,6.68-15.46,1.79-3.9,3.63-7.8,5.34-11.74,2.4,3.48,5.78,6.49,9.06,8.94,4.18,3.11,8.8,5.66,13.69,7.47,10.44,3.88,21.86,4.28,32.6,1.47,2.99-.78,5.94-1.8,8.74-3.12,1.41-.67,2.81-1.39,4.14-2.2,1.35-.82,2.88-1.8,3.9-3.01.76-.91-.27-2.14-1.31-1.79-1.21.41-2.26,1.16-3.42,1.69-1.28.59-2.52,1.29-3.8,1.89-2.34,1.08-4.75,2.03-7.21,2.79-5.1,1.57-10.44,2.32-15.78,2.28-10.01-.08-19.98-3.36-28.21-9.02-.43-.3-.84-.63-1.27-.94.89.35,1.8.66,2.76.91,5.31,1.37,10.95,1.31,16.37.78,10.5-1.04,20.65-4.43,29.76-9.73,2.5-1.46,4.94-3.05,7.22-4.84,2.3-1.8,4.86-3.87,6.41-6.37.63-1.01-.38-2.1-1.43-1.49-2.15,1.25-4.06,3-6.05,4.49-1.97,1.47-3.98,2.89-6.06,4.2-4.2,2.64-8.68,4.81-13.34,6.51-4.6,1.68-9.36,2.91-14.2,3.61-5.12.74-10.44,1.06-15.57.29-4.23-.64-8.11-2.25-11.58-4.58.22.04.44.09.66.12,2.7.39,5.46.39,8.17.11,5.43-.55,10.76-2.12,15.84-4.09,10.04-3.9,19.6-9.21,28.34-15.47,2.48-1.78,4.91-3.65,7.26-5.6,2.3-1.91,4.79-3.95,6.4-6.5.66-1.04-.39-2.11-1.46-1.52-2.3,1.28-4.29,3.14-6.31,4.82-1.94,1.62-3.92,3.19-5.94,4.7-4.16,3.1-8.5,5.95-12.99,8.53-4.42,2.54-9.01,4.8-13.7,6.8-4.81,2.06-9.78,3.84-14.94,4.74-4.67.82-9.76.94-14.49-.07,3.22-1.73,6.31-3.69,9.36-5.7,3.86-2.53,7.66-5.15,11.4-7.86,7.47-5.41,14.75-11.12,21.71-17.17,3.89-3.38,7.65-6.91,10.72-11.05.44-.59-.27-1.32-.88-.92-7.56,4.96-14.12,11.42-21.18,17.07-7.1,5.68-14.43,11.06-21.95,16.16-2.4,1.63-4.85,3.21-7.28,4.82.21-.42.41-.84.62-1.26,1.1-2.17,2.21-4.34,3.35-6.5,2.27-4.3,4.71-8.51,7.32-12.62,5.16-8.1,10.92-15.84,17.25-23.06,1.82-2.08,3.69-4.12,5.58-6.13,1.82-1.94,3.97-3.84,5.3-6.16.45-.79-.57-1.89-1.39-1.46-2.17,1.13-3.93,3.02-5.65,4.72-1.73,1.72-3.4,3.5-5.02,5.31-3.3,3.67-6.45,7.48-9.45,11.4-5.99,7.86-11.32,16.22-15.97,24.94-1.27,2.38-2.48,4.79-3.6,7.25-.36.79-.73,1.6-1.09,2.41.6-8.05,1.66-16.05,3.59-23.9,2.27-9.27,5.66-18.24,9.97-26.75,1.21-2.38,2.48-4.73,3.81-7.04,1.33-2.32,2.84-4.69,3.81-7.19.3-.77-.64-1.74-1.36-1.1-3.55,3.19-6.04,7.85-8.28,12.01-2.34,4.35-4.41,8.84-6.2,13.45-3.53,9.07-6.1,18.6-7.42,28.25-.53,3.91-.85,7.82-.93,11.75-1.02-2.8-1.99-5.61-2.75-8.51-1.33-5.09-2.06-10.33-2.35-15.58-.59-10.66.99-21.41,4.1-31.6.89-2.9,1.89-5.77,2.97-8.6,1.08-2.83,2.48-5.66,3.11-8.63.22-1.04-1.2-1.59-1.83-.81-1.74,2.13-2.86,4.82-3.92,7.34-1.09,2.6-2.07,5.25-2.94,7.93-1.74,5.36-3.07,10.86-3.91,16.43-1.63,10.81-1.34,21.85,1.23,32.49,1.08,4.46,2.53,9.05,4.75,13.15-1.54-.67-2.98-1.42-4.35-2.54-1.84-1.5-3.3-3.39-4.59-5.37-2.89-4.47-4.84-9.64-6.44-14.69-3.37-10.61-4.57-21.94-3.52-33.02.3-3.18.79-6.33,1.44-9.45.33-1.56.7-3.11,1.07-4.66.36-1.52.91-3.08,1-4.64.06-1.06-1.37-2.04-2.11-.94-1.63,2.43-2.29,5.71-2.96,8.54-.68,2.84-1.15,5.74-1.5,8.64-.71,5.95-.8,11.98-.28,17.94.52,5.97,1.68,11.89,3.41,17.63Z"/>
        <path class="cls-6" d="m981.91,78.15c-1.35,5.66-5.21,9.6-8.62,8.78-3.41-.81-5.08-6.07-3.73-11.73,1.35-5.66,5.21-9.6,8.62-8.78s5.08,6.07,3.73,11.73Z"/>
        <path class="cls-6" d="m1003.68,79.01c-2.15,5.41-6.53,8.75-9.79,7.46-3.26-1.29-4.16-6.73-2.02-12.14,2.15-5.41,6.53-8.75,9.79-7.46,3.26,1.29,4.16,6.73,2.02,12.14Z"/>
        <path class="cls-6" d="m1022.92,85.51c-2.68,5.17-7.38,8.05-10.49,6.44-3.11-1.61-3.46-7.11-.78-12.28,2.68-5.17,7.38-8.05,10.49-6.44,3.11,1.62,3.46,7.11.78,12.28Z"/>
        <path class="cls-6" d="m1056.13,117.31c-4.06,4.18-9.38,5.59-11.9,3.15-2.52-2.44-1.27-7.81,2.78-11.99s9.38-5.59,11.9-3.15c2.52,2.44,1.27,7.81-2.78,11.99Z"/>
        <path class="cls-6" d="m1072.23,152.69c-4.88,3.17-10.39,3.37-12.3.43-1.91-2.94.5-7.9,5.38-11.07,4.88-3.17,10.39-3.37,12.3-.43,1.91,2.94-.5,7.9-5.38,11.07Z"/>
        <path class="cls-6" d="m1041.22,100.46c-3.8,4.42-9.03,6.14-11.69,3.85-2.66-2.29-1.74-7.72,2.06-12.13,3.8-4.42,9.03-6.14,11.69-3.85,2.66,2.29,1.74,7.72-2.06,12.13Z"/>
        <path class="cls-6" d="m1069.65,134.06c-4.28,3.94-9.68,5.05-12.06,2.47-2.38-2.58-.83-7.87,3.45-11.81,4.28-3.94,9.68-5.05,12.06-2.47,2.38,2.58.83,7.87-3.45,11.81Z"/>
        <path class="cls-6" d="m1071.32,175.13c-5.43,2.1-10.86,1.15-12.13-2.12-1.27-3.27,2.11-7.63,7.54-9.73,5.43-2.1,10.86-1.15,12.13,2.12,1.27,3.27-2.11,7.63-7.54,9.73Z"/>
      </g>
      <g>
        <path class="cls-10" d="m108.42,225.91c-3.08,7.83-.99,17.42,5.08,23.25,6.06,5.83,15.73,7.55,23.43,4.17.07,1.32.43,2.58,1.02,3.75h26.45c1.77-1.55,3.43-3.25,5.03-4.96,11.24-12.03,20.86-25.78,26.82-41.13-1.66,8.01-2.61,17.76-2.77,25.94-.13,6.88.87,13.91,3.68,20.16h76.79c2.16-3.3,3.56-7.09,3.92-11.02,6,.49,11.45-4.78,12.49-10.71,1.04-5.93-1.55-12.03-5.49-16.59-3.94-4.55-8.05-10.14-13.14-13.35,9.5,4.51,21.65,2.67,29.39-4.44,7.74-7.11,10.6-19.06,6.92-28.9,4.14-5.55,5.44-13.11,3.38-19.72-2.06-6.61-7.41-12.11-13.97-14.33,1.72-4.35-1.06-9.52-5.19-11.72-4.12-2.2-9.13-2.02-13.7-1.01-10.15,2.25-18.79,8.56-24.71,17.1,5.04-9.68,9.09-20.21,9.06-31.13-.02-10.91-4.74-22.28-14.01-28.06-9.26-5.77-23.13-4.17-29.19,4.91-6.55-2.14-14.05.47-18.87,5.39-4.82,4.93-7.23,11.81-7.97,18.67-.74,6.85.34,14.08,1.13,20.93-4.96-9.58-10.06-19.35-17.88-26.77-7.82-7.42-19.02-12.19-29.49-9.59-2.88.71-5.7,2.02-7.67,4.23-1.97,2.21-2.95,5.44-1.98,8.24-6.68.35-13.13,3.89-17.02,9.34-3.89,5.45-5.14,12.69-3.31,19.13-5.93,2.25-9.57,8.82-9.4,15.16.17,6.34,3.64,12.27,8.37,16.5,4.73,4.23,10.62,6.92,16.62,9-7.62,1.33-14.08,4.06-20.37,8.56-6.29,4.51-11.19,11.29-12.27,18.95-1.08,7.66,2.19,16.07,8.82,20.06Z"/>
        <path class="cls-2" d="m191.03,179.69c-1.7-.85-3.78-1.16-5.64-1.5-1.89-.34-3.8-.63-5.71-.88-3.88-.5-7.77-.87-11.67-1.1-7.65-.45-15.42-.5-23.05.27-4.36.44-8.73.96-12.95,2.18-.66.19-.35,1.14.26,1.12,3.85-.12,7.67-.56,11.52-.81,3.79-.24,7.57-.45,11.36-.5,7.65-.1,15.29.28,22.89,1.22,2.08.26,4.16.57,6.24.87,2.1.31,4.35.84,6.48.7.86-.06.96-1.22.25-1.57Z"/>
        <path class="cls-2" d="m203.43,169c-.45-1.68-.94-3.34-1.44-5-1-3.31-1.97-6.64-2.87-9.98-.9-3.35-1.71-6.72-2.47-10.1-.79-3.5-1.84-6.97-2.48-10.5-.17-.92-1.61-.8-1.47.14.54,3.53.82,7.08,1.53,10.59.7,3.5,1.52,6.99,2.41,10.45.88,3.47,1.85,6.92,2.93,10.33.52,1.65,1.1,3.28,1.75,4.88.66,1.63,1.41,3.31,2.37,4.79.27.41.93.13.88-.34-.2-1.77-.67-3.55-1.13-5.27Z"/>
        <path class="cls-2" d="m203.15,180.74c-.34.56-.71,1.08-.94,1.7-.24.65-.47,1.31-.69,1.97-.4,1.2-.76,2.42-1.11,3.63-.76,2.63-1.47,5.27-2.14,7.92-.66,2.59-1.26,5.21-1.79,7.83-.26,1.31-.53,2.62-.75,3.94-.2,1.22-.5,2.58-.21,3.8.1.43.76.48.99.15.69-.97.91-2.32,1.19-3.45.33-1.3.61-2.61.93-3.91.62-2.55,1.25-5.09,1.9-7.63.65-2.54,1.35-5.07,2.08-7.58.74-2.53,1.72-5.12,1.92-7.76.05-.68-.92-1.35-1.37-.61Z"/>
        <path class="cls-2" d="m272,205.02c-6.36-6.23-14.28-10.97-22.18-14.98-7.99-4.06-16.41-7.22-25.08-9.47-2.39-.62-4.79-1.18-7.22-1.61-1.83-.32-3.72-.62-5.6-.68.91-.94,1.8-1.89,2.64-2.9,1.17-1.41,2.36-2.79,3.59-4.15,2.51-2.79,5.15-5.45,7.93-7.97,5.63-5.09,11.71-9.66,17.93-14,3.54-2.47,7.11-4.88,10.38-7.69.47-.41.08-1.33-.56-1.03-6.99,3.28-13.45,7.95-19.59,12.61-6.11,4.62-11.94,9.65-17.14,15.28-2.78,3.02-5.35,6.17-7.11,9.87-.01,0-.03,0-.04,0-.7.05-.93,1.15-.23,1.4.04.01.08.02.13.04.07.04.15.06.23.07,1.99.66,4.08,1.07,6.13,1.5,2.11.45,4.22.91,6.32,1.42,4.24,1.03,8.41,2.3,12.51,3.79,8.26,3,16.19,6.85,23.65,11.49,4.2,2.61,8.2,5.52,12.3,8.27.88.59,1.77-.54,1.02-1.28Z"/>
        <path class="cls-4" d="m223.23,175.42c1.8-.44,3.7-.94,5.16-2.13.48-.39.3-1.14-.31-1.27-1.84-.38-3.76.04-5.55.46-1.76.41-3.51.88-5.26,1.32-1.4.35-2.78.73-4.17,1.12,1.02-.95,2.04-1.91,3.07-2.82,1.21-1.07,2.45-2.1,3.78-3.03,1.31-.92,2.85-1.64,4.01-2.73.5-.47.46-1.53-.39-1.6-1.76-.15-3.35.69-4.82,1.56-1.5.89-2.86,2.05-4.15,3.21-1.36,1.23-2.69,2.48-4,3.76.58-1.32,1.14-2.65,1.71-3.94.68-1.53,1.38-3.04,2-4.6.31-.77.63-1.56.86-2.36.24-.82.56-1.73.44-2.58-.09-.61-.74-.9-1.25-.56-.68.46-1.1,1.23-1.53,1.91-.48.74-.88,1.57-1.27,2.36-.73,1.5-1.39,3.04-2.07,4.56-.64,1.44-1.34,2.9-1.99,4.38-.04-.54-.08-1.09-.1-1.61-.07-1.7-.14-3.4-.11-5.11.05-3.46.7-7.07.21-10.5-.13-.92-1.36-1.14-1.77-.29-1.56,3.23-1.58,7.19-1.59,10.71,0,1.13.02,2.26.08,3.39-.35-.86-.72-1.71-1.04-2.58-.53-1.46-1.01-2.95-1.49-4.43-.48-1.48-.81-3.18-1.97-4.28-.46-.43-1.34-.2-1.55.38-.57,1.54-.02,3.26.37,4.79.41,1.61.94,3.18,1.51,4.74.49,1.34,1.03,2.66,1.61,3.97-.76-.61-1.51-1.23-2.29-1.82-2.44-1.85-5.04-3.35-7.68-4.89-.89-.52-1.73.92-.93,1.53,2.33,1.78,4.55,3.74,6.83,5.59.63.51,1.24,1.04,1.85,1.56,0,0-.01,0-.02,0-1.53-.56-3.07-1.09-4.63-1.58-3.19-1.02-6.46-1.7-9.7-2.53-.86-.22-1.3,1.23-.45,1.49,3.15.96,6.2,2.27,9.28,3.41,1.52.57,3.03,1.17,4.55,1.76.47.19.95.37,1.43.55-2.41.58-4.81,1.19-7.18,1.91-1.63.5-3.27,1-4.87,1.58-1.54.56-3.35,1.11-4.51,2.32-.49.51-.08,1.42.58,1.51,1.61.21,3.33-.47,4.86-.92,1.64-.49,3.27-1.01,4.9-1.51,2-.61,4-1.22,6.01-1.81-1.76,1.55-3.44,3.2-5.09,4.88-1.49,1.52-2.94,3.08-4.35,4.66-.73.81-1.44,1.64-2.11,2.5-.66.84-1.37,1.85-1.31,2.96.03.5.56.94,1.05.87,1.07-.16,1.87-.99,2.58-1.75.75-.8,1.45-1.63,2.17-2.45,1.4-1.6,2.84-3.16,4.31-4.7,1.71-1.78,3.47-3.52,5.21-5.27-.68,2.13-1.29,4.28-1.89,6.45-.46,1.69-.9,3.38-1.34,5.07-.45,1.75-1.02,3.64-.69,5.43.15.81,1.15,1.19,1.71.51,1.16-1.4,1.59-3.28,2.06-5.03.46-1.69.89-3.38,1.31-5.08.28-1.12.55-2.24.81-3.35.4,1.75.81,3.5,1.27,5.23.52,1.93,1.06,3.86,1.63,5.77.29.95.57,1.92.94,2.84.38.95.73,2.09,1.65,2.65.53.32,1.26.28,1.53-.37.71-1.7-.41-4.24-.91-5.9-.58-1.91-1.15-3.83-1.69-5.75-.54-1.92-1.08-3.84-1.59-5.77-.06-.23-.13-.46-.19-.68.78,1.35,1.57,2.69,2.37,4.02.98,1.63,1.98,3.25,2.97,4.88.98,1.62,1.98,3.47,3.59,4.51.7.45,1.76.04,1.66-.9-.22-1.98-1.46-3.74-2.5-5.41-1-1.61-2.02-3.22-3.04-4.83-1.02-1.6-2.06-3.2-3.1-4.78-.12-.18-.24-.36-.36-.53.03.03.07.05.1.08.71.56,1.42,1.13,2.14,1.68,1.54,1.16,3.08,2.32,4.63,3.48,1.5,1.13,3,2.25,4.51,3.35,1.49,1.08,3.14,2.47,5,2.75.74.11,1.52-.68,1.16-1.42-.83-1.71-2.55-2.87-4.03-3.99-1.54-1.16-3.1-2.3-4.66-3.44-1.52-1.1-3.03-2.21-4.55-3.31-.55-.4-1.12-.78-1.68-1.17.68.16,1.35.33,2.03.47,1.87.39,3.76.7,5.65,1.02,1.49.26,2.97.55,4.39,1.04.71.25,1.39.57,2.09.84.69.27,1.33.59,2.09.61.45.01.78-.5.74-.91-.13-1.54-1.93-2.7-3.21-3.27-1.57-.7-3.31-1.01-5-1.27-.75-.12-1.51-.2-2.27-.3.14-.03.28-.06.42-.09,1.76-.4,3.53-.78,5.29-1.22Z"/>
      </g>
      <g>
        <path class="cls-9" d="m44.95,226.32c2.12-1.26,3.93-3.13,4.86-5.42.92-2.29.88-5.01-.36-7.14-1.25-2.13-3.77-3.53-6.21-3.2-2.45.33-4.58,2.55-4.57,5.02-.12-2.61-.26-5.33-1.56-7.6-1.3-2.27-4.12-3.89-6.56-2.94-1.75.68-2.84,2.5-3.17,4.35-.33,1.85-.84,3.17-.53,5.02-1.93-2.12-4-4.32-6.74-5.17-2.74-.85-6.3.25-7.11,3-.49,1.66.15,3.49,1.23,4.85,1.08,1.35,2.56,2.32,4.01,3.27-3.73-.71-7.83,1.26-10.05,4.34-1.83,2.53-2.19,6.48.18,8.51,1.14.98,2.69,1.33,4.19,1.48,2.99.29,6.04-.11,8.85-1.18-2.77,2.9-3.7,7.42-2.31,11.18.55,1.48,1.57,2.95,3.11,3.33,1.56.38,3.15-.46,4.41-1.44,3.43-2.67,5.77-6.7,6.41-11,1.15,1.62,2.01,3.35,3.57,4.57s3.6,1.99,5.55,1.58c2.91-.6,4.79-3.7,4.89-6.67.1-2.97-.65-6.11-2.07-8.72Z"/>
        <path class="cls-4" d="m35.45,223.83c0,2.38-1.93,4.31-4.31,4.31s-4.31-1.93-4.31-4.31,1.93-4.31,4.31-4.31,4.31,1.93,4.31,4.31Z"/>
      </g>
      <g>
        <path class="cls-8" d="m1116.5,199.47c-1.51,1.54-3.12,2.96-4.61,4.54-1.47,1.56-2.87,3.2-4.26,4.82-2.83,3.31-5.51,6.75-8.1,10.25-5.1,6.9-9.85,14.05-14.24,21.42-1.24,2.08-2.47,4.16-3.57,6.31-1.11,2.15-2.29,4.32-2.82,6.7-.22.99,1.07,1.37,1.66.74,1.44-1.54,2.51-3.43,3.57-5.23,1.09-1.85,2.19-3.69,3.28-5.54,2.14-3.63,4.38-7.19,6.69-10.72,4.66-7.12,9.67-14,14.94-20.68,1.46-1.85,2.91-3.69,4.38-5.53,1.55-1.94,2.95-4.02,4.53-5.93.78-.94-.63-2.01-1.46-1.17Z"/>
        <g>
          <path class="cls-9" d="m1161.16,214.1c-.83.57-1.68,1.15-2.55,1.67-13.75,8.44-33.42,11.36-49.34-1.57-10.1-8.22-16.9-20.67-17.03-33.72-.06-6.33,1.39-12.62,4.09-18.36.3-.67.61-1.31.98-1.96,2.78-5.29,6.64-10.01,11.36-13.69,3.76-2.92,8.57-5.31,13.19-4.11,4.61,1.18,7.74,5.74,8.68,10.4.94,4.66.13,9.49-.68,14.18,3.63-6.38,10.07-9.79,17.43-9.66,3.11.04,6.31.87,8.68,2.87,3.39,2.87,4.53,7.77,3.83,12.14-.7,4.39-3.02,8.35-5.57,11.97,0,0,15.56-12.79,20.69,4.76,2.37,8.09-3.74,18.04-13.77,25.09Z"/>
          <g>
            <path class="cls-4" d="m1126.07,187.58c-.41.61-.8,1.24-1.17,1.87-.11.17-.2.35-.31.52-1.13-.31-2.31-.37-3.53-.26.35-.65.74-1.28,1.13-1.91.17-.28.35-.57.54-.85,2.46-3.96,5.24-7.79,8.49-11.12.96-.98,2.37.17,1.65,1.31-2.24,3.5-4.61,6.92-6.79,10.44Z"/>
            <path class="cls-4" d="m1130.66,190.83c-.63.57-1.24,1.15-1.87,1.74-.06.06-.13.11-.19.17-.06-.09-.13-.18-.2-.28-.7-.85-1.48-1.46-2.33-1.91.18-.17.37-.35.56-.52.52-.48,1.02-.96,1.54-1.44,1.31-1.26,2.65-2.5,3.98-3.74.94-.89,1.87-1.78,2.85-2.65.87-.78,1.74-1.63,2.87-2.02,1.02-.37,2.04.67,1.59,1.68-.52,1.22-1.57,2.13-2.52,3.04-.87.85-1.76,1.67-2.63,2.5-1.22,1.13-2.44,2.28-3.65,3.42Z"/>
            <path class="cls-4" d="m1144.23,187.04c-1.15.91-2.18,1.94-3.33,2.85-1.04.81-2.09,1.59-3.16,2.35-1.54,1.11-3.09,2.16-4.68,3.2-.67.46-1.33.91-2.02,1.35-.17.11-.31.2-.48.31-.18-1.11-.57-2.2-1.17-3.22.8-.5,1.59-1.02,2.37-1.54,1.42-.93,2.85-1.87,4.27-2.79,1.15-.76,2.31-1.54,3.48-2.28,1.11-.7,2.29-1.31,3.39-2.04,1.2-.8,2.44.89,1.33,1.8Z"/>
            <path class="cls-3" d="m1161.16,214.1c-.83.57-1.68,1.15-2.55,1.67-1.96-2.18-4.57-3.78-7.35-4.74-7.31-2.54-15.45-.22-22.3,2.59-1.15.46-2.29-.8-1.8-1.89,1.94-4.31,4.29-9.77,3.39-14.62-.18-1.11-.57-2.2-1.17-3.22-.22-.39-.48-.78-.78-1.15-.06-.09-.13-.18-.2-.28-.7-.85-1.48-1.46-2.33-1.91-.48-.26-.96-.44-1.48-.59-1.13-.31-2.31-.37-3.53-.26-3.74.35-7.72,2.33-10.62,3.87-1.17.61-2.37-.91-1.87-1.96,3.15-6.7,5.39-15.38,1.52-22.28-2.68-4.72-8.29-8.09-13.75-7.22.3-.67.61-1.31.98-1.96,1.7-.37,3.48-.3,5.24.18,5.61,1.5,10.1,6.03,11.64,11.64,1.57,5.76.61,11.73-1.44,17.25,3.16-1.37,6.68-2.42,9.97-2.28,1.15.04,2.28.24,3.35.63.72.24,1.42.57,2.09,1.02.81.52,1.57,1.17,2.28,1.96.07.09.17.19.22.28.43.48.8,1,1.09,1.52.61,1,1.04,2.02,1.3,3.09,1.24,4.61-.19,9.77-2,14.34,6.94-2.48,14.62-3.85,21.69-1.28,2.98,1.07,6.11,3.04,8.42,5.59Z"/>
          </g>
        </g>
      </g>
      <g>
        <path class="cls-4" d="m645.05,70.32c-6.45-16.97-29.88-.52-16.12,11.31-16.76,1.77-10.66,29.53,4.54,18.97-3.69,19.91,25.28,16.74,23.83-1.86,18.78,9.12,26.61-22.67,5.75-23.32,9.06-5.82-.51-20.58-10.33-15.44-2.85,1.49-8.52,6.13-7.67,10.34Z"/>
        <path class="cls-9" d="m654.59,86.16c0,4.65-3.77,8.42-8.42,8.42s-8.42-3.77-8.42-8.42,3.77-8.42,8.42-8.42,8.42,3.77,8.42,8.42Z"/>
      </g>
      <g>
        <path class="cls-4" d="m241.11,11.41c-6.45-16.97-29.88-.52-16.12,11.31-16.76,1.77-10.66,29.53,4.54,18.97-3.69,19.91,25.28,16.74,23.83-1.86,18.78,9.12,26.61-22.67,5.75-23.32,9.06-5.82-.51-20.58-10.33-15.44-2.85,1.49-8.52,6.13-7.67,10.35Z"/>
        <circle class="cls-9" cx="242.24" cy="27.25" r="8.42" transform="translate(51.68 179.27) rotate(-45)"/>
      </g>
      <g>
        <path class="cls-7" d="m878.85,257.08c-12.02-15.74-30.6-26.56-50.38-28.39-24.16-2.23-49.03,9.07-63.61,28.39h113.99Z"/>
        <path class="cls-7" d="m1021.45,257.08c-14.23-21.02-40.31-33.53-65.63-31.19-20.93,1.93-40.52,13.94-52.41,31.19h118.03Z"/>
        <path class="cls-5" d="m921.78,257.08c9.44-3.26,19.39-4.8,29.37-5.18,3.37-.13,6.74-.14,10.11-.03,1.76.06,3.52.15,5.28.24,1.72.09,3.5.24,5.2-.07,1.08-.2,1.59-1.84.37-2.29-2.93-1.09-6.33-1.03-9.43-1.15-3.07-.12-6.15-.16-9.23-.1-6.28.13-12.57.68-18.75,1.81-7.47,1.37-14.79,3.59-21.67,6.78h8.74Z"/>
        <path class="cls-5" d="m876.9,197.23c2.48,9.19,4.7,18.45,6.58,27.79,2.13,10.61,3.82,21.32,5.1,32.07h3.62c-.04-.32-.07-.65-.11-.97-2.34-19.05-5.95-38.02-11.03-56.53-2.85-10.4-6.29-20.56-9.97-30.69-.57-1.56-2.94-.64-2.4.92,3.1,9.01,5.74,18.21,8.22,27.41Z"/>
        <path class="cls-5" d="m802.73,254.15c6.04.13,12.08-.14,18.13.15,6.04.29,12.06.91,18.02,1.94,1.51.26,3.01.55,4.5.85h13.74c-11.02-3.36-22.41-5.44-33.92-6.07-6.84-.37-13.96-.42-20.69.96-1.39.29-1.19,2.14.21,2.17Z"/>
      </g>
      <g>
        <path class="cls-10" d="m931.57,168.56c-12.22,16.33-35.67,27.59-49.83,31.91-22.05,6.71-60.13,12.12-91.1-14.37-13.11-11.21-21.67-22.12-26.84-32.14-.43-.82-.82-1.62-1.19-2.42-9.2-19.61-5.4-35.53,2.45-43.08,12.12-11.67,33.66-2.7,33.66-2.7-.87-11.9,5.28-24,16.2-28.81,10.93-4.83,24.75-2.06,32.97,6.59,3.3-10.39,13.94-17.41,24.85-17.71,10.91-.28,21.62,6.89,25.51,17.09,3.29-8.24,12.61-12.17,21.44-11.26,8.81.91,16.66,6.71,21.46,14.18,3.39,5.26,5.4,11.23,6.5,17.41.2,1.07.36,2.15.5,3.23.2,1.53.34,3.07.44,4.62,1.37,20.36-4.8,41.14-17.04,57.47Z"/>
        <path class="cls-4" d="m843.91,139.75c.78.8,1.56,1.65,2.38,2.56-2.61.2-5.2.73-7.75,1.58-1.99.67-3.93,1.53-5.77,2.58-.57-.8-1.12-1.58-1.63-2.34-10.14-15.26-7.66-25.86,12.77-4.37Z"/>
        <path class="cls-4" d="m862.49,141.47c.48,1.23.98,2.43,1.47,3.62-4.51-1.81-9.31-2.86-14.14-2.91-.48-.94-.94-1.88-1.4-2.84-4.71-9.81-8.07-20.54-3.27-25.4,8.85,6.43,13.07,17.07,17.34,27.53Z"/>
        <path class="cls-4" d="m887.78,135.98c-.07,1.76-.16,3.59-.28,5.52-2.42,4.3-3.96,9.11-4.74,13.93-.16.98-1.56,1.71-2.34.89-3.91-4.05-8.44-7.46-13.5-9.93-.28-1.19-.55-2.36-.78-3.52-8.3-39.08,2.9-57.95,11.4,5.26-4.3-43.75,12.1-59.01,10.25-12.15Z"/>
        <path class="cls-2" d="m948.17,106.47c-9.33,5.6-16.72,14.55-19.54,25.07-.27.96-1.51,1.78-2.4.92-3.07-3.06-7.02-4.92-11.3-5.58-7.83-1.24-15.65,1.47-21.41,6.84-2.4,2.26-4.41,4.9-6.02,7.78-2.42,4.3-3.96,9.11-4.74,13.93-.16.98-1.56,1.71-2.34.89-3.91-4.05-8.44-7.46-13.5-9.93-.05-.02-.09-.05-.14-.07-.92-.44-1.85-.85-2.81-1.23-4.51-1.81-9.31-2.86-14.14-2.91-1.17-.04-2.36,0-3.54.12-2.61.2-5.2.73-7.75,1.58-1.99.67-3.93,1.53-5.77,2.58-6,3.36-10.93,8.51-13.54,14.98-.44,1.12-1.79,1.03-2.49.28-3.84-4.19-8.01-8.12-12.67-11.37-7.44-5.17-16.52-8.44-25.58-6.34-5.86,1.35-11.53,4.81-14.69,9.95-.43-.82-.82-1.62-1.19-2.42,1.19-1.85,2.7-3.5,4.49-4.92,7.12-5.74,16.93-7.27,25.63-4.81,9.77,2.75,17.8,9.24,24.73,16.47,2.1-4.28,5.21-8.01,8.95-11,1.49-1.19,3.06-2.24,4.71-3.16,3.94-2.24,8.3-3.71,12.77-4.37,1.49-.25,3-.37,4.51-.41,1.92-.09,3.84,0,5.76.23,2.84.36,5.61,1,8.31,1.9,1.24.41,2.45.87,3.64,1.4,5.26,2.27,10.11,5.54,14.28,9.45.91-4.1,2.31-8.08,4.35-11.74.89-1.6,1.9-3.14,3.02-4.6,4.16-5.49,9.82-9.77,16.63-11.46,7.5-1.83,15.92-.66,22.03,4.19,1.24-3.8,2.97-7.39,5.19-10.71,4.1-6.09,9.68-11.14,16.04-14.76.2,1.07.36,2.15.5,3.23Z"/>
      </g>
      <g>
        <path class="cls-1" d="m1130.81,257.08c5.9-3.74,11.54-7.98,16.83-12.71,1.15-1.02,2.28-2.07,3.39-3.15.24-.22.5-.46.74-.7-15.79-7.74-34.29-7.18-51.74-5-12.34,1.55-24.8,3.89-35.9,9.49-5.95,3.02-11.5,7.1-15.95,12.07h82.64Z"/>
        <path class="cls-8" d="m1081.35,257.08c.7-.22,1.39-.45,2.09-.67,17.1-5.24,34.68-8.92,52.45-10.96,3.9-.43,7.83-.8,11.75-1.09,1.15-1.02,2.28-2.07,3.39-3.15-4.03.24-8.07.59-12.08,1-8.96.94-17.88,2.29-26.7,4.07-13.27,2.66-26.36,6.28-39.12,10.79h8.24Z"/>
      </g>
      <circle class="cls-9" cx="936.5" cy="199.06" r="4.91"/>
      <path class="cls-9" d="m151.78,56.7c0,2.71-2.2,4.91-4.91,4.91s-4.91-2.2-4.91-4.91,2.2-4.91,4.91-4.91,4.91,2.2,4.91,4.91Z"/>
      <circle class="cls-9" cx="50.79" cy="126.83" r="4.91"/>
      <circle class="cls-9" cx="395.12" cy="73.53" r="4.91"/>
      <circle class="cls-9" cx="1102.7" cy="102.99" r="4.91"/>
    </g>
  </g>
</svg>