<?xml version="1.0" encoding="UTF-8"?>
<svg id="Lag_2" data-name="Lag 2" xmlns="http://www.w3.org/2000/svg" viewBox="0 0 544.18 373.75">
  <defs>
    <style>
      .cls-1, .cls-2 {
        stroke-width: 0px;
      }

      .cls-2 {
        fill: #0063f9;
      }
    </style>
  </defs>
  <g id="Layer_1" data-name="Layer 1">
    <g>
      <g>
        <path class="cls-2" d="m133.52,23.02c-.15-.19-15.97-18.81-48.22-13.59-31.96,5.16-49.79,1.4-49.96,1.36l-.6-.13.17.6c19.63,71.5.19,145.09,0,145.82l-.14.47h42.19l-.19-.5c-9.93-27.09,14.42-53.28,35.91-76.39,5.49-5.91,10.69-11.5,14.96-16.76,20.6-25.41,6.02-40.75,5.88-40.88Zm-28.45,15.84c-.68,14.28-6.94,32.17-18.57,53.13-.13.18-11.6,17.09-14.33,31.44-1.47-16.57-7.1-95.8,18.82-108.73.96-.48,1.99-.71,3.01-.71,1.97,0,3.91.88,5.24,2.51,2.98,3.65,6.41,10.49,5.83,22.36Z"/>
        <path class="cls-2" d="m263.6,128.31c-.21.32-19.47,29.53-55.9,29.53-2.09,0-4.21-.09-6.4-.29-40.57-3.72-54.02-30.61-54.15-30.88-.16-.22-18.58-27.51-6.15-69.11,4.05-13.55,10.91-23,20.37-28.09,13.54-7.27,27.84-2.87,27.98-2.83.37.17,33.4,15.53,22.71,43.56-.04.14-1.26,4.29-5.23,8.79-3.66,4.13-10.44,9.31-21.98,10.48l-.42.04.02-.44c.02-.4,1.91-40.64-20.11-50.38-1.39,2.48-11.1,22.9,12.7,71.94,9.49,19.55,21.01,31.58,34.24,35.79,13.56,4.31,24.09-1.48,24.19-1.54.12-.05,6.08-2.17,10.22-10.79,8.56-17.81,1.88-46.03-5.23-66.56-.04-.14-4.53-13.19-15.23-25.25-9.85-11.09-27.16-23.6-53.63-20.14l-1.2.15.91-.81c.22-.19,21.37-18.64,47.08-14.48,17.92,2.9,33.76,15.86,47.05,38.51.06.13,5.59,10.97,8.1,26.51,2.32,14.35,2.48,35.77-9.94,56.29Z"/>
        <path class="cls-2" d="m386.3,118.91c-4.3-14.1-11.12-23.47-20.28-27.83-9.21-4.4-18.27-2.34-21.6-1.3,2.91-3.33,5.61-6.37,8.23-9.33,16.95-19.07,26.3-29.58,26.3-44.47,0-5.34-2.49-10.48-7.18-14.88-9.71-9.09-27.27-14.04-44.75-12.61-29.15,2.4-52.36,1.72-52.59,1.71h-.48s.11.47.11.47c20.82,84.97.23,145.78.01,146.38l-.17.5h42.87l-.06-.43c-2.74-18.03-.39-32.2,6.99-42.12,8.29-11.16,20.18-12.8,20.25-12.81,3.57,0,6.46,1.24,8.61,3.69,5.87,6.72,4.31,20.44,4.3,20.58-2.16,22.79-13.79,34.82-13.9,34.94l-.5.5.69.13c4.7.92,9.05,1.38,13.03,1.38,9.75,0,17.31-2.74,22.58-8.19,6.43-6.65,8.14-16.16,8.44-22.98.32-7.35-.88-13.23-.9-13.33Zm-74.65,5.43c-1.38-17.08-7.07-104.43,20.54-110.08.43-.08.86-.13,1.29-.13,1.34,0,2.63.42,3.69,1.21,2.74,2.06,7.13,7.87,5.68,23.59-1.9,20.57-3.67,34.07-15.62,51.86-5.91,8.82-10.51,17.92-13.66,27.06-.87,2.52-1.51,4.69-1.92,6.49Z"/>
        <path class="cls-2" d="m505.41,24.51c-.78,6.77-7.22,12.76-19.13,17.8-.12.03-8.27,2.27-14.87,2.27s-10.72,5.78-10.76,5.84c-.01.02-2.56,3.99-4.27,12.91-1.59,8.24-2.75,22.5.65,43.66,6.55,40.59,11.06,52.18,11.11,52.29l.2.51h-54.03l.88-.67c.11-.08,8.7-7.5,8.7-57.31,0-14.55,1.86-35.09,10.73-50.31,5.34-9.16,10.61-12,10.83-12.11.08-.05,9.78-6.03,21.54-6.03,12.74,0,27.62-3.23,27.62-12.34s-12.09-11.59-12.22-11.61c-.08-.02-3.55-1.08-9.11.39-5.14,1.36-13.17,5.23-22.22,15.95-17.57,20.82-39.81,23.3-40.03,23.32-.18,0-15.54.16-22.77-10.69-5.56-8.34-4.96-20.78,1.77-36.96l.59-1.42.11,1.53s.39,4.28,4.96,7.48c5.09,3.55,16.06,6.3,39.51-.74,22.53-6.76,38.06-6.4,47.13-4.9,9.87,1.62,14.32,4.82,14.51,4.96.4.29,9.61,7.2,8.57,16.18Z"/>
        <path class="cls-2" d="m236.84,291.13c-.21.32-19.46,29.54-55.9,29.54-2.08,0-4.21-.1-6.39-.3-40.57-3.71-54.02-30.61-54.15-30.88-.17-.22-18.59-27.52-6.16-69.1,4.06-13.56,10.91-23.01,20.38-28.1,13.54-7.27,27.83-2.87,27.98-2.82.37.16,33.4,15.53,22.7,43.54-.03.15-1.25,4.31-5.23,8.8-3.65,4.13-10.44,9.31-21.97,10.48l-.43.04.03-.43c.02-.41,1.91-40.64-20.12-50.38-1.38,2.47-11.1,22.89,12.71,71.93,9.49,19.54,21.01,31.59,34.23,35.79,13.56,4.31,24.09-1.48,24.2-1.54.12-.04,6.07-2.17,10.22-10.79,8.56-17.81,1.88-46.03-5.23-66.57-.05-.13-4.54-13.18-15.23-25.23-9.85-11.1-27.16-23.6-53.63-20.16l-1.2.16.91-.81c.21-.18,21.37-18.63,47.08-14.48,17.92,2.89,33.75,15.85,47.05,38.51.06.13,5.59,10.97,8.1,26.52,2.32,14.35,2.48,35.76-9.95,56.28Z"/>
        <path class="cls-2" d="m533.01,291.13c-.21.32-19.46,29.54-55.9,29.54-2.08,0-4.21-.1-6.4-.3-40.56-3.71-54.01-30.61-54.15-30.88-.16-.22-18.58-27.52-6.15-69.1,4.05-13.56,10.91-23.01,20.38-28.1,13.53-7.27,27.83-2.87,27.97-2.82.38.16,33.41,15.53,22.71,43.54-.04.15-1.25,4.31-5.23,8.8-3.65,4.13-10.44,9.31-21.97,10.48l-.43.04.02-.43c.03-.41,1.92-40.64-20.11-50.38-1.38,2.47-11.1,22.89,12.71,71.93,9.49,19.54,21.01,31.59,34.24,35.79,13.55,4.31,24.08-1.48,24.19-1.54.12-.04,6.07-2.17,10.22-10.79,8.56-17.81,1.88-46.03-5.23-66.57-.05-.13-4.53-13.18-15.24-25.23-9.85-11.1-27.15-23.6-53.62-20.16l-1.2.16.91-.81c.21-.18,21.36-18.63,47.08-14.48,17.92,2.89,33.75,15.85,47.04,38.51.07.13,5.6,10.97,8.11,26.52,2.32,14.35,2.47,35.76-9.95,56.28Z"/>
        <path class="cls-2" d="m36.73,200.73c.25,4.38.37,9.02.37,14.19v24.95c2.34-2.7,11.05-10.09,32.89-3.75,25.15,7.29,31.91-5.66,31.98-5.79l.51-1.03.18,1.13c.05.27,4.28,27.33-13.55,31.1-.51.13-13.24,3.07-33.61-13.43-5.87-4.74-10.42-6.32-13.54-4.68-5.44,2.85-4.87,14.61-4.86,14.73.02.47,1.76,45.8,11.09,61.96l.33.56H0l.23-.53c.06-.12,5.57-12.61,8.57-36.8,2.78-22.32,3.94-59.47-6.32-109.63l-.06-.28.26-.13c.18-.09,5.02-2.22,48.11,4.46,42.7,6.61,56.24-10.9,56.37-11.08l.33-.44.29.47c.05.09,5.62,9.6,2.53,20.65-2.35,8.4-8.95,15.47-19.63,21.03-.25.11-23.33,10.32-40.98-13.58-5.74-7.77-8.71-8.74-10.19-8.19-2.24.83-3.26,5.98-2.78,14.11Z"/>
        <path class="cls-2" d="m355.44,311.94c-1.4,5.31-5.72,9.49-12.82,12.41-.22.09-3.26,1.2-12.37,1.2-7.47,0-19.02-.74-36.45-3.42-.25-.04-23.63-4.39-45.13-1.46l-.53.06.12-.52c.17-.74,16.32-74.85,1.76-147.25l-.08-.45h49.59l-.5.62c-.09.11-9.17,11.43-14.64,32.53-5,19.36-7.9,51.12,6.58,92.73.21.6.46,1.17.74,1.73,2.13,4.11,11.49,20.48,25.51,19.8,7.48-.35,13.41-2.81,17.14-7.12,3-3.49,4.46-7.99,4.07-12.7-.55-6.68-7.03-14.33-10.09-17.59-.92-.98-1.97-1.8-3.14-2.45-3.11-1.74-10.17-5.91-17.12-11.49-8.55-6.88-18.66-17.39-18.28-28.37.26-7.3,3.26-13.31,8.7-17.41,8.59-6.45,22.59-7.9,37.44-3.88l.64.17-.47.46c-.2.19-18.56,18.7-1.68,49.21.17.3.36.61.55.9l15.72,23.94c.11.17.22.32.34.48,1.01,1.4,6.58,9.59,4.4,17.87Z"/>
        <path class="cls-2" d="m406.93,320.67h-46.75l.17-.5c.21-.62,21.3-63.01,1.66-147.19l-.1-.47h43.24l-.14.48c-.2.73-20.17,73.38,1.78,147.2l.14.48Z"/>
      </g>
      <g>
        <polygon class="cls-1" points="131.87 354.57 131.87 373.43 127.87 373.43 127.82 362.19 122.35 371.41 120.44 371.41 114.98 362.32 114.98 373.43 110.97 373.43 110.97 354.57 114.53 354.57 121.48 366.28 128.29 354.57 131.87 354.57"/>
        <polygon class="cls-1" points="150.67 369.92 150.67 373.43 136.3 373.43 136.3 354.57 150.33 354.57 150.33 358.07 140.57 358.07 140.57 362.14 149.19 362.14 149.19 365.56 140.57 365.56 140.57 369.92 150.67 369.92"/>
        <path class="cls-1" d="m154.1,373.43v-18.85h8.43c2.02,0,3.79.39,5.33,1.17,1.54.78,2.74,1.88,3.61,3.29.87,1.41,1.3,3.07,1.3,4.97s-.43,3.56-1.3,4.97c-.87,1.41-2.07,2.5-3.61,3.29-1.54.78-3.31,1.17-5.33,1.17h-8.43Zm4.32-3.56h3.9c1.24,0,2.31-.24,3.22-.71.91-.48,1.62-1.16,2.12-2.05.5-.89.76-1.93.76-3.11s-.25-2.24-.76-3.12c-.5-.88-1.21-1.56-2.12-2.03-.91-.48-1.99-.71-3.22-.71h-3.9v11.74Z"/>
        <path class="cls-1" d="m176,373.43v-18.85h4.32v18.85h-4.32Z"/>
        <polygon class="cls-1" points="199.08 369.92 199.08 373.43 184.7 373.43 184.7 354.57 198.73 354.57 198.73 358.07 188.97 358.07 188.97 362.14 197.59 362.14 197.59 365.56 188.97 365.56 188.97 369.92 199.08 369.92"/>
        <path class="cls-1" d="m215.04,363.7h3.93v7.65c-1.03.79-2.2,1.39-3.53,1.79-1.32.41-2.65.61-3.98.61-1.46,0-2.82-.24-4.06-.71-1.23-.48-2.3-1.16-3.2-2.04-.91-.88-1.61-1.91-2.11-3.1-.51-1.18-.76-2.48-.76-3.9s.25-2.72.76-3.91c.5-1.18,1.21-2.21,2.13-3.09.92-.88,2-1.56,3.24-2.04,1.24-.47,2.6-.71,4.08-.71,1.65,0,3.13.28,4.44.83,1.32.56,2.43,1.37,3.33,2.43l-2.73,2.58c-.69-.73-1.43-1.28-2.23-1.63-.79-.35-1.67-.52-2.62-.52-.89,0-1.7.15-2.44.44-.74.3-1.39.72-1.92,1.26-.54.53-.96,1.17-1.25,1.91-.29.73-.44,1.55-.44,2.45s.15,1.67.44,2.41c.29.75.71,1.39,1.25,1.93.53.53,1.17.96,1.91,1.26.73.31,1.54.46,2.42.46s1.68-.14,2.48-.43c.29-.1.58-.23.86-.39v-5.54Z"/>
        <path class="cls-1" d="m235.25,367.36s.02,0,.03,0c1.2-.53,2.13-1.3,2.79-2.31.65-1.02.98-2.23.98-3.65s-.33-2.62-.98-3.64c-.66-1.02-1.59-1.81-2.79-2.36-1.2-.54-2.63-.82-4.3-.82h-8.03v18.86h4.32v-5.28h3.9l3.61,5.28h4.61l-4.14-6.07Zm-1.54-3.55c-.67.58-1.66.86-2.97.86h-3.47v-6.54h3.47c1.31,0,2.3.28,2.97.85.68.56,1.01,1.37,1.01,2.41s-.33,1.85-1.01,2.42Z"/>
        <path class="cls-1" d="m252.49,354.57h-4.24l-8.25,18.86h4.4l1.65-4.04h8.61l1.65,4.04h4.51l-8.33-18.86Zm-5.08,11.5l2.95-7.19,2.94,7.19h-5.89Z"/>
        <polygon class="cls-1" points="267.08 358.07 267.08 363.06 275.65 363.06 275.65 366.56 267.08 366.56 267.08 373.43 262.76 373.43 262.76 354.57 276.79 354.57 276.79 358.07 267.08 358.07"/>
        <path class="cls-1" d="m279.7,373.43v-18.85h4.32v18.85h-4.32Z"/>
        <polygon class="cls-1" points="306.15 373.43 301.11 373.43 295.14 366.03 292.67 368.64 292.67 373.43 288.4 373.43 288.4 354.57 292.67 354.57 292.67 363.37 300.9 354.57 305.67 354.57 298 362.99 306.15 373.43"/>
        <polygon class="cls-1" points="322.4 369.92 322.4 373.43 308.03 373.43 308.03 354.57 322.06 354.57 322.06 358.07 312.3 358.07 312.3 362.14 320.92 362.14 320.92 365.56 312.3 365.56 312.3 369.92 322.4 369.92"/>
        <path class="cls-1" d="m338.13,367.36s.02,0,.03,0c1.2-.53,2.13-1.3,2.78-2.31.66-1.02.99-2.23.99-3.65s-.33-2.62-.99-3.64c-.65-1.02-1.58-1.81-2.78-2.36-1.2-.54-2.64-.82-4.3-.82h-8.03v18.86h4.32v-5.28h3.9l3.61,5.28h4.61l-4.14-6.07Zm-7.98-9.23h3.47c1.31,0,2.3.28,2.97.85.68.56,1.01,1.37,1.01,2.41s-.33,1.85-1.01,2.42c-.67.58-1.66.86-2.97.86h-3.47v-6.54Z"/>
        <polygon class="cls-1" points="367.2 369.92 367.2 373.43 352.83 373.43 352.83 354.57 366.86 354.57 366.86 358.07 357.1 358.07 357.1 362.14 365.71 362.14 365.71 365.56 357.1 365.56 357.1 369.92 367.2 369.92"/>
        <path class="cls-1" d="m370.62,373.43v-18.85h4.32v15.3h9.26v3.56h-13.58Z"/>
        <polygon class="cls-1" points="401.02 369.92 401.02 373.43 386.64 373.43 386.64 354.57 400.67 354.57 400.67 358.07 390.91 358.07 390.91 362.14 399.53 362.14 399.53 365.56 390.91 365.56 390.91 369.92 401.02 369.92"/>
        <polygon class="cls-1" points="422.02 354.57 413.99 373.43 409.74 373.43 401.71 354.57 406.37 354.57 412.02 368.03 417.75 354.57 422.02 354.57"/>
      </g>
    </g>
  </g>
</svg>