<?xml version="1.0" encoding="UTF-8"?>
<svg id="Lag_2" data-name="Lag 2" xmlns="http://www.w3.org/2000/svg" viewBox="0 0 544.18 373.75" width="544.18" height="373.75">
  <defs>
    <style>
      .cls-1, .cls-2 {
        stroke-width: 0px;
      }

      .cls-2 {
        fill: #0063f9;
      }
    </style>
  </defs>
  <g id="Layer_1" data-name="Layer 1">
    <g>
      <g>
        <g>
          <path class="cls-2" d="m133.53,23.02c-.15-.19-15.97-18.81-48.23-13.59-31.96,5.16-49.79,1.41-49.96,1.36l-.6-.13.16.6c19.63,71.5.2,145.09,0,145.82l-.13.47h42.19l-.18-.5c-9.93-27.09,14.42-53.28,35.9-76.39,5.5-5.91,10.69-11.5,14.96-16.76,20.6-25.41,6.02-40.75,5.89-40.88Zm-6.46,40.4c-4.25,5.24-9.44,10.83-14.93,16.73-20.43,21.98-45.83,49.29-36.24,76.65h-40.16c1.64-6.43,18.65-76.65.04-145.17,3.34.6,20.76,3.19,49.64-1.47,31.82-5.14,47.39,13.15,47.57,13.36.04.04,3.62,3.77,4.69,10.5,1.78,11.29-4.79,22.22-10.62,29.39Z"/>
          <path class="cls-2" d="m137.68,34.03c-1.07-6.73-4.66-10.47-4.69-10.5-.18-.21-15.75-18.5-47.57-13.36-28.88,4.67-46.3,2.07-49.64,1.47,18.61,68.51,1.6,138.73-.04,145.17h40.16c-9.59-27.36,15.81-54.67,36.24-76.65,5.49-5.9,10.68-11.48,14.93-16.73,5.83-7.17,12.39-18.1,10.62-29.39Zm-50.55,58.36c-.15.22-13.22,19.46-14.66,34.15l-.35,3.52-.39-3.52c-.02-.25-2.65-24.7-1.66-50.63,1.34-34.92,8.27-55.74,20.59-61.89,3.15-1.57,6.91-.75,9.15,2,6.6,8.09,13.73,28.77-12.69,76.36Z"/>
        </g>
        <path class="cls-2" d="m99.81,16.03c-2.24-2.75-6-3.57-9.15-2-12.32,6.15-19.25,26.97-20.59,61.89-.99,25.92,1.64,50.38,1.66,50.63l.39,3.52.35-3.52c1.44-14.69,14.51-33.93,14.66-34.15,26.41-47.59,19.29-68.27,12.69-76.36Zm-13.31,75.97c-.13.18-11.6,17.09-14.33,31.44-1.47-16.58-7.1-95.81,18.82-108.73.97-.48,2-.71,3.01-.71,1.97,0,3.91.88,5.25,2.51,2.98,3.65,6.4,10.48,5.83,22.35-.68,14.28-6.94,32.17-18.57,53.13Z"/>
        <g>
          <path class="cls-2" d="m273.54,72.02c-2.51-15.54-8.04-26.39-8.1-26.51-13.29-22.65-29.12-35.61-47.05-38.51-25.7-4.15-46.86,14.3-47.08,14.48l-.91.82,1.2-.16c26.47-3.46,43.78,9.05,53.63,20.15,10.7,12.06,15.18,25.11,15.23,25.24,7.11,20.54,13.79,48.75,5.23,66.56-4.15,8.63-10.1,10.74-10.22,10.79-.1.06-10.64,5.85-24.19,1.54-13.23-4.2-24.75-16.24-34.24-35.79-23.8-49.04-14.09-69.46-12.71-71.93,22.03,9.74,20.14,49.98,20.11,50.38l-.02.44.43-.04c11.54-1.17,18.32-6.35,21.98-10.48,3.97-4.5,5.19-8.65,5.23-8.79,10.69-28.03-22.34-43.38-22.71-43.56-.14-.04-14.44-4.44-27.97,2.83-9.47,5.09-16.33,14.54-20.38,28.09-12.43,41.6,6,68.89,6.15,69.11.13.27,13.59,27.16,54.15,30.88,2.2.2,4.32.29,6.4.29,36.43,0,55.69-29.21,55.9-29.53,12.42-20.52,12.27-41.94,9.95-56.29Zm-10.57,55.89c-.21.33-21.45,32.58-61.61,28.89-40.13-3.67-53.43-30.19-53.58-30.52-.04-.07-4.66-6.82-7.71-18.58-2.81-10.87-4.82-28.36,1.63-49.92,3.99-13.36,10.72-22.66,20-27.65,6-3.22,12.15-4.11,17.1-4.11,6,0,10.23,1.3,10.28,1.32.32.15,32.73,15.22,22.27,42.61,0,.04-1.23,4.19-5.11,8.56-3.53,3.97-10.03,8.93-21.06,10.16.15-4.47.67-41.63-20.87-50.8l-.27-.12-.17.25c-.14.2-3.38,5.09-3.47,16.57-.09,10.53,2.62,28.87,15.97,56.37,9.58,19.74,21.26,31.92,34.69,36.18,13.87,4.4,24.65-1.54,24.7-1.58.25-.08,6.28-2.21,10.56-11.1,8.7-18.04,1.99-46.49-5.18-67.18-.04-.13-4.57-13.31-15.36-25.47-9.81-11.06-26.93-23.51-53.02-20.57,4.42-3.52,23.25-17.1,45.5-13.5,17.7,2.87,33.35,15.7,46.52,38.14.22.43,21.73,43.14-1.83,82.03Z"/>
          <path class="cls-2" d="m262.97,127.91c-.21.33-21.45,32.58-61.61,28.89-40.13-3.67-53.43-30.19-53.58-30.52-.04-.07-4.66-6.82-7.71-18.58-2.81-10.87-4.82-28.36,1.63-49.92,3.99-13.36,10.72-22.66,20-27.65,6-3.22,12.15-4.11,17.1-4.11,6,0,10.23,1.3,10.28,1.32.32.15,32.73,15.22,22.27,42.61,0,.04-1.23,4.19-5.11,8.56-3.53,3.97-10.03,8.93-21.06,10.16.15-4.47.67-41.63-20.87-50.8l-.27-.12-.17.25c-.14.2-3.38,5.09-3.47,16.57-.09,10.53,2.62,28.87,15.97,56.37,9.58,19.74,21.26,31.92,34.69,36.18,13.87,4.4,24.65-1.54,24.7-1.58.25-.08,6.28-2.21,10.56-11.1,8.7-18.04,1.99-46.49-5.18-67.18-.04-.13-4.57-13.31-15.36-25.47-9.81-11.06-26.93-23.51-53.02-20.57,4.42-3.52,23.25-17.1,45.5-13.5,17.7,2.87,33.35,15.7,46.52,38.14.22.43,21.73,43.14-1.83,82.03Z"/>
        </g>
        <g>
          <path class="cls-2" d="m386.3,118.91c-4.3-14.1-11.12-23.47-20.27-27.83-9.22-4.4-18.27-2.33-21.61-1.3,2.91-3.32,5.61-6.37,8.24-9.32,16.95-19.08,26.29-29.59,26.29-44.48,0-5.33-2.48-10.47-7.18-14.87-9.71-9.1-27.27-14.04-44.75-12.61-29.15,2.39-52.36,1.72-52.59,1.71h-.49s.12.46.12.46c20.81,84.97.22,145.78,0,146.38l-.17.5h42.87l-.07-.43c-2.73-18.02-.38-32.2,6.99-42.12,8.29-11.15,20.18-12.79,20.25-12.81,3.57,0,6.46,1.24,8.61,3.7,5.87,6.72,4.32,20.44,4.3,20.58-2.16,22.78-13.78,34.82-13.9,34.94l-.49.49.69.13c4.7.92,9.05,1.38,13.03,1.38,9.75,0,17.31-2.74,22.58-8.19,6.42-6.64,8.13-16.16,8.44-22.98.32-7.35-.88-13.23-.9-13.33Zm.16,13.32c-.3,6.68-1.97,16-8.23,22.47-7.14,7.38-18.68,9.64-34.3,6.73,2.22-2.53,11.71-14.45,13.65-34.88.07-.58,1.61-14.18-4.48-21.16-2.28-2.61-5.36-3.94-9.19-3.94h-.01c-.13.01-12.3,1.68-20.78,13.09-7.45,10.01-9.87,24.23-7.21,42.27h-40.98c.91-2.83,5.41-17.54,7.76-40.61,2.4-23.57,2.98-60.92-7.79-105.23,3.48.08,25.31.48,52.18-1.73,17.02-1.4,34.77,3.59,44.19,12.41,4.54,4.26,6.94,9.21,6.94,14.33,0,14.6-9.27,25.03-26.1,43.98-2.9,3.27-5.9,6.64-9.17,10.39l-1.06,1.21,1.47-.62c.11-.04,11.12-4.55,22.37.82,8.96,4.27,15.64,13.48,19.86,27.34.01.06,1.19,5.87.88,13.13Z"/>
          <path class="cls-2" d="m385.59,119.1c-4.22-13.86-10.9-23.07-19.86-27.34-11.25-5.37-22.26-.87-22.37-.82l-1.47.62,1.06-1.21c3.26-3.75,6.26-7.12,9.17-10.39,16.83-18.94,26.1-29.37,26.1-43.98,0-5.12-2.4-10.07-6.94-14.33-9.42-8.82-27.17-13.81-44.19-12.41-26.87,2.21-48.7,1.81-52.18,1.73,10.78,44.3,10.2,81.66,7.79,105.23-2.34,23.07-6.84,37.78-7.76,40.61h40.98c-2.67-18.04-.24-32.26,7.21-42.27,8.48-11.41,20.66-13.08,20.78-13.09h.01c3.82,0,6.9,1.33,9.19,3.94,6.09,6.98,4.55,20.59,4.48,21.16-1.94,20.43-11.43,32.35-13.65,34.88,15.62,2.92,27.16.66,34.3-6.73,6.26-6.48,7.93-15.79,8.23-22.47.32-7.26-.86-13.07-.88-13.13Zm-71.32-1c-1.38,4-2.17,7.08-2.36,9.19h-.74c-.02-.27-2.62-27.09-1.39-54.34,1.67-36.75,9.16-56.74,22.26-59.42,1.98-.4,4.01.04,5.57,1.21,3.51,2.63,7.38,8.98,5.97,24.27-1.91,20.68-3.69,34.26-15.74,52.2-5.88,8.76-10.45,17.81-13.59,26.89Z"/>
        </g>
        <path class="cls-2" d="m337.61,14.74c-1.56-1.17-3.59-1.62-5.57-1.21-13.1,2.68-20.58,22.67-22.26,59.42-1.24,27.25,1.36,54.08,1.39,54.34h.74c.18-2.1.98-5.19,2.36-9.19,3.13-9.08,7.71-18.13,13.59-26.89,12.05-17.94,13.83-31.53,15.74-52.2,1.41-15.29-2.47-21.64-5.97-24.27Zm5.24,24.19c-1.89,20.57-3.67,34.07-15.61,51.86-5.92,8.81-10.51,17.92-13.67,27.05-.87,2.52-1.51,4.69-1.92,6.49-1.38-17.08-7.07-104.43,20.53-110.08.43-.08.87-.13,1.3-.13,1.33,0,2.63.42,3.69,1.21,2.74,2.06,7.12,7.86,5.67,23.59Z"/>
        <g>
          <path class="cls-2" d="m496.84,8.33c-.18-.13-4.64-3.34-14.51-4.96-9.07-1.5-24.6-1.86-47.12,4.9-23.45,7.04-34.43,4.29-39.51.74-4.58-3.19-4.96-7.43-4.96-7.47l-.12-1.53-.59,1.42c-6.73,16.18-7.32,28.62-1.77,36.96,7.23,10.85,22.6,10.69,22.77,10.69.22-.02,22.46-2.5,40.03-23.32,9.05-10.72,17.08-14.59,22.22-15.95,5.56-1.47,9.03-.41,9.11-.39.13.02,12.22,2.3,12.22,11.6s-14.88,12.34-27.63,12.34c-11.76,0-21.46,5.98-21.53,6.03-.22.11-5.5,2.96-10.83,12.11-8.87,15.22-10.73,35.76-10.73,50.31,0,49.8-8.59,57.22-8.69,57.31l-.88.67h54.03l-.21-.52c-.04-.11-4.56-11.69-11.1-52.29-3.4-21.16-2.24-35.42-.66-43.66,1.71-8.92,4.26-12.89,4.27-12.91.04-.06,4.39-5.84,10.76-5.84s14.75-2.24,14.87-2.27c11.91-5.03,18.35-11.03,19.13-17.8,1.04-8.98-8.18-15.89-8.58-16.18Zm7.85,16.09c-.75,6.49-7.04,12.27-18.64,17.18-.08.02-8.13,2.23-14.64,2.23s-11.16,5.89-11.36,6.15c-.1.16-2.64,4.09-4.38,13.14-1.6,8.3-2.78,22.68.65,43.99,5.81,36.07,10.03,49.3,10.96,51.94h-51c2.06-2.61,8.35-14.11,8.35-57.23,0-50.01,20.95-61.65,21.19-61.77.1-.06,9.63-5.93,21.17-5.93,13.08,0,28.36-3.43,28.36-13.09s-12.7-12.31-12.78-12.33c-.58-.19-14.43-4.32-32.07,16.57-17.37,20.59-39.32,23.04-39.51,23.07-.15,0-15.1.16-22.12-10.36-5.27-7.92-4.81-19.74,1.37-35.12.44,1.59,1.67,4.42,5.01,6.76,9.44,6.62,27.05,3.31,40.16-.62,42.75-12.83,60.82-.18,61-.05.09.07,9.26,6.94,8.27,15.49Z"/>
          <path class="cls-2" d="m504.69,24.42c-.75,6.49-7.04,12.27-18.64,17.18-.08.02-8.13,2.23-14.64,2.23s-11.16,5.89-11.36,6.15c-.1.16-2.64,4.09-4.38,13.14-1.6,8.3-2.78,22.68.65,43.99,5.81,36.07,10.03,49.3,10.96,51.94h-51c2.06-2.61,8.35-14.11,8.35-57.23,0-50.01,20.95-61.65,21.19-61.77.1-.06,9.63-5.93,21.17-5.93,13.08,0,28.36-3.43,28.36-13.09s-12.7-12.31-12.78-12.33c-.58-.19-14.43-4.32-32.07,16.57-17.37,20.59-39.32,23.04-39.51,23.07-.15,0-15.1.16-22.12-10.36-5.27-7.92-4.81-19.74,1.37-35.12.44,1.59,1.67,4.42,5.01,6.76,9.44,6.62,27.05,3.31,40.16-.62,42.75-12.83,60.82-.18,61-.05.09.07,9.26,6.94,8.27,15.49Z"/>
        </g>
        <g>
          <path class="cls-2" d="m246.79,234.85c-2.51-15.55-8.04-26.39-8.1-26.51-13.3-22.66-29.12-35.62-47.05-38.51-25.71-4.15-46.87,14.3-47.08,14.48l-.91.81,1.2-.16c26.47-3.45,43.78,9.05,53.63,20.15,10.7,12.05,15.18,25.1,15.24,25.23,7.11,20.54,13.79,48.76,5.23,66.56-4.15,8.63-10.1,10.75-10.23,10.8-.1.06-10.63,5.85-24.19,1.54-13.22-4.2-24.74-16.25-34.23-35.79-23.81-49.04-14.09-69.46-12.71-71.93,22.03,9.74,20.13,49.98,20.11,50.38l-.02.43.43-.04c11.53-1.17,18.32-6.34,21.97-10.48,3.98-4.49,5.19-8.64,5.23-8.79,10.7-28.02-22.33-43.38-22.71-43.55-.15-.04-14.44-4.44-27.98,2.83-9.47,5.09-16.32,14.54-20.37,28.09-12.44,41.59,5.99,68.88,6.15,69.11.13.27,13.59,27.16,54.15,30.88,2.19.19,4.32.29,6.39.29,36.44,0,55.69-29.21,55.9-29.54,12.43-20.52,12.27-41.93,9.95-56.28Zm-10.57,55.89c-.21.32-21.45,32.57-61.61,28.89-40.13-3.68-53.43-30.2-53.58-30.52-.05-.07-4.66-6.82-7.71-18.58-2.81-10.88-4.82-28.36,1.63-49.92,3.99-13.35,10.72-22.65,20-27.64,6-3.22,12.15-4.11,17.1-4.11,6,0,10.23,1.3,10.28,1.32.33.15,32.73,15.23,22.28,42.61-.01.04-1.24,4.2-5.11,8.56-3.53,3.98-10.03,8.94-21.06,10.17.15-4.47.67-41.63-20.87-50.8l-.27-.12-.17.25c-.14.2-3.38,5.09-3.48,16.58-.08,10.53,2.62,28.86,15.97,56.37,9.58,19.74,21.25,31.92,34.69,36.18,13.86,4.4,24.64-1.54,24.7-1.58.25-.08,6.28-2.21,10.56-11.1,8.7-18.04,1.98-46.49-5.18-67.18-.04-.13-4.57-13.31-15.36-25.47-9.82-11.06-26.94-23.51-53.02-20.57,4.42-3.51,23.25-17.09,45.5-13.5,17.7,2.87,33.35,15.7,46.51,38.14.22.43,21.73,43.14-1.82,82.03Z"/>
          <path class="cls-2" d="m236.22,290.73c-.21.32-21.45,32.57-61.61,28.89-40.13-3.68-53.43-30.2-53.58-30.52-.05-.07-4.66-6.82-7.71-18.58-2.81-10.88-4.82-28.36,1.63-49.92,3.99-13.35,10.72-22.65,20-27.64,6-3.22,12.15-4.11,17.1-4.11,6,0,10.23,1.3,10.28,1.32.33.15,32.73,15.23,22.28,42.61-.01.04-1.24,4.2-5.11,8.56-3.53,3.98-10.03,8.94-21.06,10.17.15-4.47.67-41.63-20.87-50.8l-.27-.12-.17.25c-.14.2-3.38,5.09-3.48,16.58-.08,10.53,2.62,28.86,15.97,56.37,9.58,19.74,21.25,31.92,34.69,36.18,13.86,4.4,24.64-1.54,24.7-1.58.25-.08,6.28-2.21,10.56-11.1,8.7-18.04,1.98-46.49-5.18-67.18-.04-.13-4.57-13.31-15.36-25.47-9.82-11.06-26.94-23.51-53.02-20.57,4.42-3.51,23.25-17.09,45.5-13.5,17.7,2.87,33.35,15.7,46.51,38.14.22.43,21.73,43.14-1.82,82.03Z"/>
        </g>
        <g>
          <path class="cls-2" d="m542.96,234.85c-2.51-15.55-8.04-26.39-8.1-26.51-13.3-22.66-29.12-35.62-47.05-38.51-25.71-4.15-46.87,14.3-47.08,14.48l-.91.81,1.2-.16c26.47-3.45,43.78,9.05,53.63,20.15,10.7,12.05,15.18,25.1,15.24,25.23,7.11,20.54,13.79,48.76,5.23,66.56-4.15,8.63-10.1,10.75-10.22,10.8-.11.06-10.64,5.85-24.19,1.54-13.23-4.2-24.75-16.25-34.24-35.79-23.81-49.04-14.09-69.46-12.71-71.93,22.03,9.74,20.13,49.98,20.11,50.38l-.02.43.43-.04c11.53-1.17,18.32-6.34,21.97-10.48,3.98-4.49,5.19-8.64,5.23-8.79,10.7-28.02-22.33-43.38-22.71-43.55-.15-.04-14.44-4.44-27.97,2.83-9.47,5.09-16.33,14.54-20.38,28.09-12.44,41.59,5.99,68.88,6.15,69.11.13.27,13.59,27.16,54.15,30.88,2.19.19,4.32.29,6.39.29,36.44,0,55.69-29.21,55.9-29.54,12.43-20.52,12.27-41.93,9.95-56.28Zm-10.57,55.89c-.21.32-21.48,32.57-61.61,28.89-40.13-3.68-53.43-30.2-53.58-30.52-.05-.07-4.68-6.84-7.72-18.62-2.81-10.86-4.8-28.34,1.64-49.89,3.99-13.35,10.72-22.65,20-27.64,6-3.22,12.15-4.11,17.1-4.11,6,0,10.23,1.3,10.28,1.32.33.15,32.73,15.23,22.28,42.61-.01.04-1.24,4.2-5.11,8.56-3.53,3.98-10.03,8.94-21.06,10.17.15-4.47.67-41.63-20.87-50.8l-.27-.12-.17.25c-.14.2-3.38,5.09-3.48,16.58-.08,10.53,2.62,28.86,15.97,56.37,9.58,19.74,21.25,31.92,34.69,36.18,13.86,4.4,24.64-1.54,24.7-1.58.25-.08,6.28-2.21,10.56-11.1,8.7-18.04,1.98-46.49-5.18-67.18-.04-.13-4.57-13.31-15.36-25.47-9.81-11.06-26.94-23.51-53.02-20.57,4.42-3.51,23.24-17.1,45.5-13.5,17.7,2.87,33.35,15.7,46.51,38.14.22.43,21.73,43.14-1.82,82.03Z"/>
          <path class="cls-2" d="m532.39,290.73c-.21.32-21.48,32.57-61.61,28.89-40.13-3.68-53.43-30.2-53.58-30.52-.05-.07-4.68-6.84-7.72-18.62-2.81-10.86-4.8-28.34,1.64-49.89,3.99-13.35,10.72-22.65,20-27.64,6-3.22,12.15-4.11,17.1-4.11,6,0,10.23,1.3,10.28,1.32.33.15,32.73,15.23,22.28,42.61-.01.04-1.24,4.2-5.11,8.56-3.53,3.98-10.03,8.94-21.06,10.17.15-4.47.67-41.63-20.87-50.8l-.27-.12-.17.25c-.14.2-3.38,5.09-3.48,16.58-.08,10.53,2.62,28.86,15.97,56.37,9.58,19.74,21.25,31.92,34.69,36.18,13.86,4.4,24.64-1.54,24.7-1.58.25-.08,6.28-2.21,10.56-11.1,8.7-18.04,1.98-46.49-5.18-67.18-.04-.13-4.57-13.31-15.36-25.47-9.81-11.06-26.94-23.51-53.02-20.57,4.42-3.51,23.24-17.1,45.5-13.5,17.7,2.87,33.35,15.7,46.51,38.14.22.43,21.73,43.14-1.82,82.03Z"/>
        </g>
        <g>
          <path class="cls-2" d="m39.51,186.62c1.48-.55,4.45.43,10.19,8.19,17.65,23.9,40.73,13.69,40.98,13.58,10.68-5.55,17.28-12.62,19.63-21.02,3.09-11.05-2.48-20.56-2.53-20.66l-.29-.47-.32.44c-.13.18-13.67,17.69-56.38,11.08-43.09-6.68-47.92-4.55-48.11-4.46l-.26.13.06.28c10.26,50.16,9.1,87.31,6.32,109.63-3.01,24.19-8.52,36.67-8.57,36.8l-.24.52h48.52l-.33-.56c-9.33-16.16-11.07-61.49-11.09-61.95,0-.12-.58-11.88,4.86-14.73,3.12-1.64,7.68-.06,13.54,4.68,20.37,16.5,33.1,13.56,33.62,13.43,17.82-3.77,13.59-30.83,13.55-31.1l-.18-1.13-.51,1.02c-.07.13-6.83,13.08-31.98,5.79-21.84-6.34-30.55,1.05-32.89,3.76v-24.95c0-5.18-.13-9.82-.38-14.19-.47-8.13.55-13.28,2.78-14.12Zm-3.52,14.15c.25,4.37.38,8.99.38,14.15v27.34l.68-1.09c.07-.12,7.57-11.63,32.74-4.33,21.84,6.34,30.2-2.39,32.28-5.3.57,4.86,2.13,26.04-13.11,29.26-.13.03-12.91,2.99-33-13.28-6.11-4.95-10.93-6.55-14.34-4.77-5.86,3.07-5.28,14.93-5.25,15.43.01.45,1.73,44.95,10.87,61.73H1.13c1.07-2.62,5.72-14.93,8.41-36.43,2.78-22.34,3.95-59.47-6.26-109.59,1.47-.33,9.64-1.25,47.4,4.59,6.81,1.05,12.88,1.5,18.28,1.5,25.9,0,36.45-10.2,38.44-12.44,1.04,2,4.83,10.23,2.2,19.61-2.28,8.19-8.77,15.1-19.24,20.54-.22.1-22.78,10.07-40.07-13.35-4.89-6.62-8.5-9.39-11.03-8.45-3.34,1.25-3.62,8.77-3.27,14.86Z"/>
          <path class="cls-2" d="m109.6,187.16c-2.28,8.19-8.77,15.1-19.24,20.54-.22.1-22.78,10.07-40.07-13.35-4.89-6.62-8.5-9.39-11.03-8.45-3.34,1.25-3.62,8.77-3.27,14.86.25,4.37.38,8.99.38,14.15v27.34l.68-1.09c.07-.12,7.57-11.63,32.74-4.33,21.84,6.34,30.2-2.39,32.28-5.3.57,4.86,2.13,26.04-13.11,29.26-.13.03-12.91,2.99-33-13.28-6.11-4.95-10.93-6.55-14.34-4.77-5.86,3.07-5.28,14.93-5.25,15.43.01.45,1.73,44.95,10.87,61.73H1.13c1.07-2.62,5.72-14.93,8.41-36.43,2.78-22.34,3.95-59.47-6.26-109.59,1.47-.33,9.64-1.25,47.4,4.59,6.81,1.05,12.88,1.5,18.28,1.5,25.9,0,36.45-10.2,38.44-12.44,1.04,2,4.83,10.23,2.2,19.61Z"/>
        </g>
        <g>
          <path class="cls-2" d="m350.7,293.59l-15.73-23.94c-.19-.29-.38-.59-.54-.9-16.88-30.51,1.48-49.02,1.67-49.21l.47-.46-.63-.17c-14.85-4.02-28.85-2.57-37.44,3.88-5.44,4.09-8.44,10.11-8.7,17.41-.38,10.98,9.73,21.49,18.28,28.36,6.95,5.59,14.01,9.75,17.12,11.49,1.16.65,2.22,1.47,3.13,2.45,3.06,3.27,9.54,10.91,10.09,17.59.39,4.71-1.06,9.21-4.07,12.7-3.73,4.31-9.66,6.77-17.14,7.12-14.01.68-23.37-15.68-25.5-19.8-.29-.56-.54-1.14-.74-1.73-14.48-41.61-11.59-73.37-6.58-92.73,5.47-21.1,14.54-32.42,14.63-32.54l.5-.61h-49.59l.09.45c14.55,72.4-1.6,146.51-1.77,147.25l-.12.52.53-.07c21.5-2.93,44.88,1.42,45.13,1.47,17.43,2.68,28.98,3.42,36.45,3.42,9.11,0,12.15-1.11,12.37-1.2,7.1-2.93,11.42-7.11,12.82-12.41,2.18-8.29-3.39-16.47-4.4-17.87-.12-.16-.23-.32-.33-.48Zm4.02,18.16c-1.34,5.07-5.5,9.07-12.38,11.91-.1.04-10.04,3.62-48.43-2.26-.18-.04-13.39-2.49-29.09-2.49-.05,0-.1,0-.15,0-7.92,0-13.99-7.1-12.78-15.05,3.55-23.47,8.27-68.85,1.49-115.73-1.14-7.85,4.92-14.87,12.73-14.87h10.35c9.16,0,15.35,9.43,11.88,18.04-1.64,4.07-3.26,8.79-4.64,14.13-5.04,19.46-7.97,51.4,6.61,93.26.2.58.45,1.15.73,1.7,2.1,4.07,11.34,20.29,25.36,20.29.29,0,.57,0,.86-.02,7.69-.36,13.8-2.91,17.66-7.38,3.15-3.64,4.65-8.34,4.25-13.25-.74-9.02-11.45-19.26-11.91-19.7l-.08-.06c-.38-.19-37.36-19.58-36.64-40.05.25-7.17,3.08-12.83,8.41-16.83,3.86-2.9,8.98-4.76,14.81-5.53,8.91-1.17,16.3,7.23,14.04,16.06s-2.11,20.53,6.02,35.22c.17.3.35.6.54.89l15.77,24.01c.1.16.21.31.32.46.96,1.35,6.36,9.4,4.28,17.23Z"/>
          <path class="cls-2" d="m354.72,311.75c-1.34,5.07-5.5,9.07-12.38,11.91-.1.04-10.04,3.62-48.43-2.26-.18-.04-13.39-2.49-29.09-2.49-.05,0-.1,0-.15,0-7.92,0-13.99-7.1-12.78-15.05,3.55-23.47,8.27-68.85,1.49-115.73-1.14-7.85,4.92-14.87,12.73-14.87h10.35c9.16,0,15.35,9.43,11.88,18.04-1.64,4.07-3.26,8.79-4.64,14.13-5.04,19.46-7.97,51.4,6.61,93.26.2.58.45,1.15.73,1.7,2.1,4.07,11.34,20.29,25.36,20.29.29,0,.57,0,.86-.02,7.69-.36,13.8-2.91,17.66-7.38,3.15-3.64,4.65-8.34,4.25-13.25-.74-9.02-11.45-19.26-11.91-19.7l-.08-.06c-.38-.19-37.36-19.58-36.64-40.05.25-7.17,3.08-12.83,8.41-16.83,3.86-2.9,8.98-4.76,14.81-5.53,8.91-1.17,16.3,7.23,14.04,16.06s-2.11,20.53,6.02,35.22c.17.3.35.6.54.89l15.77,24.01c.1.16.21.31.32.46.96,1.35,6.36,9.4,4.28,17.23Z"/>
        </g>
        <g>
          <path class="cls-2" d="m406.79,320.19c-21.95-73.82-1.97-146.47-1.78-147.2l.14-.48h-43.25l.1.46c19.64,84.19-1.44,146.57-1.66,147.2l-.17.49h46.75l-.15-.48Zm-45.57-.27c.93-2.87,5.56-17.93,8.15-41.3,2.64-23.84,3.65-61.44-6.53-105.35h41.35c-1.7,6.42-19.1,75.94,1.76,146.66h-44.73Z"/>
          <path class="cls-2" d="m369.36,278.61c2.64-23.84,3.65-61.44-6.53-105.35h41.35c-1.7,6.42-19.1,75.94,1.76,146.66h-44.73c.93-2.87,5.56-17.93,8.15-41.3Z"/>
        </g>
      </g>
      <g>
        <path class="cls-1" d="m110.97,373.43v-18.85h3.55l7.9,13.3h-1.88l7.74-13.3h3.58v18.85h-4l-.05-12.58h.8l-6.26,10.56h-1.91l-6.34-10.56h.88v12.58h-4Z"/>
        <path class="cls-1" d="m140.57,369.92h10.1v3.5h-14.38v-18.85h14.03v3.5h-9.76v11.85Zm-.32-7.78h8.94v3.42h-8.94v-3.42Z"/>
        <path class="cls-1" d="m154.1,373.43v-18.85h8.43c2.02,0,3.79.39,5.33,1.17,1.54.78,2.74,1.88,3.61,3.29.87,1.41,1.3,3.07,1.3,4.97s-.43,3.56-1.3,4.97c-.87,1.41-2.07,2.5-3.61,3.29-1.54.78-3.31,1.17-5.33,1.17h-8.43Zm4.32-3.56h3.9c1.24,0,2.31-.24,3.22-.71.91-.48,1.62-1.16,2.12-2.05.5-.89.76-1.93.76-3.11s-.25-2.24-.76-3.12c-.5-.88-1.21-1.56-2.12-2.03-.91-.48-1.99-.71-3.22-.71h-3.9v11.74Z"/>
        <path class="cls-1" d="m176,373.43v-18.85h4.32v18.85h-4.32Z"/>
        <path class="cls-1" d="m188.97,369.92h10.1v3.5h-14.38v-18.85h14.03v3.5h-9.76v11.85Zm-.32-7.78h8.94v3.42h-8.94v-3.42Z"/>
        <path class="cls-1" d="m211.46,373.75c-1.47,0-2.82-.24-4.06-.71-1.24-.48-2.31-1.15-3.21-2.03s-1.6-1.91-2.11-3.1c-.5-1.18-.76-2.49-.76-3.91s.25-2.72.76-3.91c.5-1.18,1.22-2.22,2.14-3.1.92-.88,2-1.56,3.24-2.03,1.24-.48,2.6-.71,4.08-.71,1.64,0,3.12.28,4.44.83,1.32.56,2.43,1.36,3.33,2.42l-2.73,2.59c-.69-.74-1.43-1.28-2.23-1.63-.8-.35-1.67-.52-2.63-.52-.88,0-1.7.15-2.44.44s-1.38.71-1.92,1.25c-.54.54-.96,1.18-1.25,1.91-.29.74-.44,1.55-.44,2.45s.15,1.67.44,2.41c.29.75.71,1.39,1.25,1.93.54.54,1.18.96,1.91,1.27.73.31,1.54.46,2.43.46s1.67-.14,2.48-.43,1.59-.76,2.35-1.43l2.44,3.15c-1.03.79-2.2,1.39-3.53,1.79-1.33.4-2.65.61-3.98.61Zm3.58-2.96v-7.08h3.93v7.65l-3.93-.57Z"/>
        <path class="cls-1" d="m222.95,373.43v-18.85h8.04c1.66,0,3.09.27,4.3.82,1.2.55,2.13,1.33,2.79,2.36.65,1.02.98,2.24.98,3.64s-.33,2.64-.98,3.65c-.65,1.01-1.58,1.79-2.79,2.32-1.2.53-2.63.79-4.3.79h-5.68l1.96-1.89v7.16h-4.32Zm4.32-6.68l-1.96-2.07h5.44c1.31,0,2.3-.29,2.97-.86.67-.57,1.01-1.38,1.01-2.42s-.34-1.84-1.01-2.41c-.67-.57-1.66-.85-2.97-.85h-5.44l1.96-2.07v10.69Zm7.51,6.68l-4.67-6.84h4.62l4.67,6.84h-4.62Z"/>
        <path class="cls-1" d="m240,373.43l8.25-18.85h4.24l8.33,18.85h-4.51l-6.82-16.64h1.72l-6.82,16.64h-4.4Zm4.16-4.04l1.09-3.31h9.6l1.11,3.31h-11.8Z"/>
        <path class="cls-1" d="m267.08,373.43h-4.32v-18.85h14.03v3.5h-9.71v15.35Zm-.34-10.37h8.91v3.5h-8.91v-3.5Z"/>
        <path class="cls-1" d="m279.71,373.43v-18.85h4.32v18.85h-4.32Z"/>
        <path class="cls-1" d="m288.4,373.43v-18.85h4.27v18.85h-4.27Zm3.82-4.31l-.21-5.04,8.88-9.51h4.77l-7.98,8.75-2.44,2.59-3.02,3.21Zm8.88,4.31l-6.6-8.19,2.81-3.12,8.83,11.31h-5.04Z"/>
        <path class="cls-1" d="m312.3,369.92h10.1v3.5h-14.38v-18.85h14.03v3.5h-9.76v11.85Zm-.32-7.78h8.94v3.42h-8.94v-3.42Z"/>
        <path class="cls-1" d="m325.83,373.43v-18.85h8.04c1.66,0,3.09.27,4.3.82,1.2.55,2.13,1.33,2.79,2.36.65,1.02.98,2.24.98,3.64s-.33,2.64-.98,3.65c-.65,1.01-1.58,1.79-2.79,2.32-1.2.53-2.63.79-4.3.79h-5.68l1.96-1.89v7.16h-4.32Zm4.32-6.68l-1.96-2.07h5.44c1.31,0,2.3-.29,2.97-.86.67-.57,1.01-1.38,1.01-2.42s-.34-1.84-1.01-2.41c-.67-.57-1.66-.85-2.97-.85h-5.44l1.96-2.07v10.69Zm7.51,6.68l-4.67-6.84h4.62l4.67,6.84h-4.62Z"/>
        <path class="cls-1" d="m357.1,369.92h10.1v3.5h-14.38v-18.85h14.03v3.5h-9.76v11.85Zm-.32-7.78h8.94v3.42h-8.94v-3.42Z"/>
        <path class="cls-1" d="m370.62,373.43v-18.85h4.32v15.3h9.26v3.56h-13.58Z"/>
        <path class="cls-1" d="m390.91,369.92h10.1v3.5h-14.38v-18.85h14.03v3.5h-9.76v11.85Zm-.32-7.78h8.94v3.42h-8.94v-3.42Z"/>
        <path class="cls-1" d="m409.74,373.43l-8.04-18.85h4.67l7,16.7h-2.73l7.11-16.7h4.27l-8.04,18.85h-4.24Z"/>
      </g>
    </g>
  </g>
</svg>