<?xml version="1.0" encoding="UTF-8"?><svg id="Layer_1" xmlns="http://www.w3.org/2000/svg" viewBox="0 0 1920 1080" width="1920" height="1080"><path d="m828.01,361.83l.45-.35h0s-.45.35-.45.35Zm-33.96-42.34h0s0,.03,0,.03h.01s-.01-.03-.01-.03Z" fill="#0063f9" stroke-width="0"/><path d="m1050.96,148.16c-1.03-1.3-2.61-1.94-4.01-1.62l-54.11,12.09c-4,.89-7.56,2.59-10.6,5.03l-204.77,164.3c-.4.31-3.88,3.21-3.71,9.94.17,6.69,3.93,14.67,11.18,23.7,7.23,9.02,14.2,14.42,20.71,16.05,1.45.36,2.76.5,3.93.5,3.82,0,6.04-1.55,6.56-1.95l204.79-164.32c1.67-1.33,3.18-2.91,4.48-4.66,1.03-1.38,1.95-2.93,2.74-4.6l23.52-50.2c.61-1.3.33-2.97-.71-4.26Zm-222.5,213.32l-.45.35h0s-14.23,11.43-14.23,11.43h-.01c-.2.16-2.72,1.96-7.42.79-5.68-1.42-11.94-6.36-18.62-14.7-6.68-8.32-10.15-15.5-10.31-21.34-.13-4.93,2.29-7.02,2.39-7.1l14.23-11.41h0s.01,0,.01,0l33.95,42.32.45-.36h0Zm190.11-152.53l-176.68,141.76-15.82-19.71,161.36-129.45-2.36-2.94-161.35,129.45-15.81-19.69h0s176.69-141.77,176.69-141.77c.95-.76,1.96-1.44,3.03-2.03,1.4,4.64,4.46,7.6,6.76,9.25l-160.62,128.87,2.36,2.94,160.82-129.03c.98,2.55,2.87,6.77,5.69,10.29,2.84,3.54,6.58,6.31,8.86,7.81l-160.83,129.05,2.49,3.1,160.56-128.82c1.15,2.58,3.38,6.08,7.5,8.38-.8.92-1.69,1.77-2.65,2.54Zm6.25-8.04c-.42.91-.89,1.77-1.41,2.58-6.02-3-7.18-9.09-7.23-9.37l-.17-.91-.8-.44c-.25-.14-6.03-3.45-9.77-8.12-3.78-4.7-5.79-11.23-5.81-11.29l-.26-.9-.85-.35c-.07-.02-5.93-2.61-7.56-9.05.92-.33,1.87-.6,2.84-.82l30.97-6.92c.48,1.53,1.84,4.46,5.7,9.28,3.82,4.76,6.39,6.75,7.81,7.59l-13.46,28.72Z" fill="#0063f9" stroke-width="0"/><polygon points="828.46 361.47 828.46 361.48 828.01 361.83 828.46 361.47" fill="#0063f9" stroke-width="0"/><path d="m263.64,809.8l-13.96,2.28c-22.37,3.65-39.9,21.19-43.55,43.55l-2.28,13.96-2.28-13.96c-3.65-22.37-21.19-39.9-43.55-43.55l-3.38-.55-10.58-1.73,13.03-2.13.94-.15c22.37-3.65,39.9-21.19,43.55-43.55l2.28-13.96,2.28,13.96c3.65,22.37,21.19,39.9,43.55,43.55l13.96,2.28Z" fill="#2861f1" stroke-width="0"/><path d="m285.78,915.7l-8.52,1.39c-13.65,2.23-24.36,12.93-26.59,26.59l-1.39,8.52-1.39-8.52c-2.23-13.65-12.93-24.36-26.59-26.59l-2.06-.34-6.46-1.05,7.95-1.3.57-.09c13.65-2.23,24.36-12.93,26.59-26.59l1.39-8.52,1.39,8.52c2.23,13.65,12.93,24.36,26.59,26.59l8.52,1.39Z" fill="#2861f1" stroke-width="0"/><path d="m181.11,887.8l-10.26,1.68c-16.44,2.68-29.32,15.57-32.01,32.01l-1.68,10.26-1.68-10.26c-2.68-16.44-15.57-29.32-32.01-32.01l-2.48-.41-7.78-1.27,9.57-1.56.69-.11c16.44-2.68,29.32-15.57,32.01-32.01l1.68-10.26,1.68,10.26c2.68,16.44,15.57,29.32,32.01,32.01l10.26,1.68Z" fill="#2861f1" stroke-width="0"/><path d="m1147.38,878.86l-8.52,1.39c-13.65,2.23-24.36,12.93-26.59,26.59l-1.39,8.52-1.39-8.52c-2.23-13.65-12.93-24.36-26.59-26.59l-2.06-.34-6.46-1.05,7.95-1.3.57-.09c13.65-2.23,24.36-12.93,26.59-26.59l1.39-8.52,1.39,8.52c2.23,13.65,12.93,24.36,26.59,26.59l8.52,1.39Z" fill="#2861f1" stroke-width="0"/><path d="m768,262.55l-12.8,2.09c-20.5,3.35-36.58,19.42-39.92,39.92l-2.09,12.8-2.09-12.8c-3.35-20.5-19.42-36.58-39.92-39.92l-3.1-.51-9.7-1.58,11.94-1.95.86-.14c20.5-3.35,36.58-19.42,39.92-39.92l2.09-12.8,2.09,12.8c3.35,20.5,19.42,36.58,39.92,39.92l12.8,2.09Z" fill="#2861f1" stroke-width="0"/><path d="m1070.01,292.52l-10.15,1.66c-16.26,2.65-29.01,15.4-31.67,31.67l-1.66,10.15-1.66-10.15c-2.65-16.26-15.4-29.01-31.67-31.67l-2.46-.4-7.69-1.26,9.47-1.55.68-.11c16.26-2.65,29.01-15.4,31.67-31.67l1.66-10.15,1.66,10.15c2.65,16.26,15.4,29.01,31.67,31.67l10.15,1.66Z" fill="#2861f1" stroke-width="0"/><path d="m992.18,361.69l-7.31,1.19c-11.71,1.91-20.89,11.09-22.8,22.8l-1.19,7.31-1.19-7.31c-1.91-11.71-11.09-20.89-22.8-22.8l-1.77-.29-5.54-.9,6.82-1.11.49-.08c11.71-1.91,20.89-11.09,22.8-22.8l1.19-7.31,1.19,7.31c1.91,11.71,11.09,20.89,22.8,22.8l7.31,1.19Z" fill="#2861f1" stroke-width="0"/></svg>